<?xml version="1.0" encoding="utf-8"?>
<!-- Generator: Adobe Illustrator 24.0.3, SVG Export Plug-In . SVG Version: 6.00 Build 0)  -->
<svg version="1.1" id="圖層_1" xmlns="http://www.w3.org/2000/svg" xmlns:xlink="http://www.w3.org/1999/xlink" x="0px" y="0px"
	 viewBox="0 0 48 48" style="enable-background:new 0 0 48 48;" xml:space="preserve">
<style type="text/css">
	.st0{fill:none;}
</style>
<path class="st0" d="M0,0h48v48H0V0z"/>
<g>
	<path d="M24,8c8.8,0,16,7.2,16,16s-7.2,16-16,16S8,32.8,8,24S15.2,8,24,8 M24,4C12.9,4,4,13,4,24s8.9,20,20,20c11,0,20-9,20-20
		S35,4,24,4L24,4z"/>
</g>
<path class="st0" d="M0.5,0h48v48h-48V0z"/>
<path d="M24.5,4c-11.1,0-20,8.9-20,20c0,11,8.9,20,20,20c11,0,20-9,20-20C44.5,12.9,35.5,4,24.5,4z M20.5,34l-10-10l2.8-2.8l7.2,7.2
	l15.2-15.2l2.8,2.8L20.5,34z"/>
</svg>
