<svg xmlns="http://www.w3.org/2000/svg" width="45" height="45" viewBox="0 0 45 45">
  <g id="组_722" data-name="组 722" transform="translate(-11038 -4023)">
    <rect id="矩形_74" data-name="矩形 74" width="45" height="45" transform="translate(11038 4023)"/>
    <path id="Icon_metro-cross" data-name="Icon metro-cross" d="M26.21,21.094h0l-7.237-7.237,7.237-7.237h0a.747.747,0,0,0,0-1.054L22.791,2.146a.747.747,0,0,0-1.054,0h0L14.5,9.383,7.262,2.146h0a.747.747,0,0,0-1.054,0L2.789,5.565a.747.747,0,0,0,0,1.054h0l7.237,7.237L2.789,21.094h0a.747.747,0,0,0,0,1.054l3.419,3.419a.747.747,0,0,0,1.054,0h0L14.5,18.329l7.237,7.237h0a.747.747,0,0,0,1.054,0l3.419-3.419a.747.747,0,0,0,0-1.054Z" transform="translate(11046.887 4031.635)" fill="#fff"/>
  </g>
</svg>
