<?xml version="1.0" encoding="utf-8"?>
<!-- Generator: Adobe Illustrator 22.1.0, SVG Export Plug-In . SVG Version: 6.00 Build 0)  -->
<svg version="1.1" id="圖層_1" xmlns="http://www.w3.org/2000/svg" xmlns:xlink="http://www.w3.org/1999/xlink" x="0px" y="0px"
	 viewBox="0 0 223.3 73" style="enable-background:new 0 0 223.3 73;" xml:space="preserve">
<style type="text/css">
	.st0{opacity:0;fill:#FFEC00;}
	.st1{opacity:0.41;enable-background:new    ;}
	.st2{fill:#1A1311;}
</style>
<g id="Group_729" transform="translate(-604.936 -737.753)">
	<rect id="Rectangle_60" x="604.9" y="765.6" class="st0" width="223.3" height="26.2"/>
	<g class="st1">
		<path class="st2" d="M634.6,791.8c-0.4,0-0.6-0.1-0.6-0.4c0.1-0.3,1.2-0.6,3.4-0.7c1.9-0.2,3.1-0.4,3.4-0.6
			c1.1-5.8,2.2-12.4,3.4-19.9c1.2-7.5,1.8-12.4,1.8-14.6c0-0.4-0.1-0.6-0.2-0.7c-0.2-0.1-0.5-0.2-0.9-0.2c-2.8,0-5.7,1-8.9,3
			c-1.5,0.9-2.7,2-3.7,3.2c-1,1.2-1.6,2.5-1.6,3.9c0,0.9,0.1,1.7,0.4,2.3c0.2,0.6,0.4,1.1,0.8,1.5c0.7,0.6,1,1.2,1.1,1.6
			c0,0.4-0.3,0.7-0.7,1.2c-0.4,0.5-0.9,0.7-1.4,0.7c-1.1,0-2-0.4-2.6-1.2c-0.6-0.7-0.9-1.6-0.9-2.7c0-2,0.4-3.7,1.2-5.2
			c0.8-1.5,1.7-2.6,2.8-3.6c4.7-4.1,10.8-6.1,18.6-6.1c5.9,0,9.9,0.6,12,1.9c1.1,0.6,1.9,1.4,2.4,2.2c0.4,0.9,0.6,1.9,0.6,3.1
			c0,1-0.1,1.9-0.4,2.7c-0.3,0.9-0.8,1.7-1.6,2.6c-1.5,1.6-4.2,3.2-8.2,4.7c5.3,13.8,9.7,20.7,13.3,20.6c0.6,0,1,0.1,1,0.4
			c0,0.2-0.2,0.3-0.7,0.3h-7.7c-0.8,0-1.6-0.9-2.4-2.8c-0.8-1.8-1.8-4.2-3-7.1c-2-4.9-3.3-7.9-4-9.1c-0.4-0.7-0.7-1.1-1.1-1.2
			c-0.4-0.1-0.9-0.2-1.4-0.2c-0.5,0-0.8,0.3-0.8,1c-0.2,1.6-0.6,4.4-1.2,8.3c-0.7,3.9-1.1,7-1.1,9.3c0,0.2,0.3,0.4,0.9,0.5
			c0.6,0.1,1.2,0.2,1.8,0.3c1.7,0.1,2.6,0.2,2.7,0.4c0,0.4-0.2,0.6-0.6,0.6H634.6z M660.1,760.7c0-2.3-0.8-4-2.3-4.9
			c-1.5-0.8-3.4-1.2-5.9-1.2c-0.8,0-1.2,0.2-1.2,0.6c-0.1,0.5-0.3,1.4-0.6,2.7c-0.2,1.4-0.5,2.9-0.8,4.6c-0.7,3.6-1,5.9-1.1,6.9
			c-0.1,0.3,0.4,0.5,1.4,0.5C656.6,769.9,660.1,766.8,660.1,760.7z"/>
		<path class="st2" d="M676.9,783c0,1.5,0.3,2.9,1,4.1c0.6,1.3,1.7,1.9,3.2,2c0.9,0,1.7-0.2,2.5-0.6c0.8-0.3,1.5-0.7,2.2-1.1
			c1.4-1,2.3-1.5,2.6-1.6c0.1,0,0.2,0.2,0.2,0.7c-1.6,1.1-2.9,1.9-3.9,2.7c-1,0.7-1.9,1.3-2.6,1.7c-1.2,0.8-2.7,1.2-4.5,1.2
			c-1.6,0-2.8-0.5-3.7-1.5c-1-1-1.5-2.5-1.5-4.4c0-1.6,0.2-3.5,0.7-5.8c0.5-2.2,1.3-4.8,2.4-7.8c0.6-1.4,1.9-2.9,4-4.6
			c1-0.8,2.1-1.5,3.3-1.9c1.1-0.5,2.3-0.8,3.4-0.8c1.4,0,2.4,0.3,2.9,0.8c0.6,0.5,0.8,1.3,0.8,2.4c0,1.1-0.3,2.2-0.7,3.5
			c-0.4,1.3-0.9,2.1-1.4,2.5c-4.3,2.4-7.8,4.2-10.6,5.5C677,780.9,676.9,782,676.9,783z M683.8,766.7c-1,0-1.9,0.5-2.7,1.3
			c-0.8,0.9-1.5,2-2,3.3c-1.1,2.8-1.7,5.2-1.8,7.2c3.2-1.3,5.4-2.6,6.7-3.7c1.2-1.2,1.8-2.8,1.8-5c0-0.8-0.1-1.5-0.3-2.1
			C685.3,767,684.7,766.7,683.8,766.7z"/>
		<path class="st2" d="M693.6,787.5c0-3.3,0.5-6.7,1.6-10.2c0.6-1.7,1.2-3.3,1.9-4.6c0.7-1.3,1.5-2.3,2.5-2.9c1.1-0.8,2.4-1.6,4-2.6
			c1.6-0.9,2.9-1.4,4-1.5c0.6,0,1.2,0.1,1.9,0.2c0.7,0.2,1.3,0.2,1.8,0.2c0-0.3,0.3-0.5,0.7-0.8c0.3-0.2,1-0.4,1.8-0.4
			c0.6,0,0.9,0.2,1,0.5c0,0.1-0.1,0.8-0.3,2.1c-0.2,1.3-0.6,3.1-1,5.4c-0.9,4.7-1.9,10.7-3,18.1c-1.3,6.6-4.1,11.5-8.4,14.7
			c-4.3,3.2-8.2,4.8-11.6,4.8c-3.3,0-5.1-1.7-5.1-5c0-0.2,0.2-0.5,0.5-0.9c0.3-0.4,0.7-0.8,1.1-1.2c0.9-1,1.5-1.5,1.7-1.6
			c0.2,0,0.2,0.2,0.2,0.6c0,0.4,0,0.8-0.1,1.2c0,3.3,1.7,4.9,4.9,5c2.2,0,4-0.8,5.6-2.2c1.5-1.3,2.7-3.1,3.7-5.2
			c1.9-4.5,3.1-8.8,3.6-12.9c-1.1,0.4-2,0.8-2.9,1.3c-0.9,0.5-1.8,0.9-2.6,1.3c-1.6,0.9-3.2,1.3-4.6,1.3c-1,0-1.7-0.3-2.1-0.8
			C693.9,790.7,693.6,789.4,693.6,787.5z M698.2,785.2c0,2.7,0.7,4,2.3,3.9c1.3,0,2.7-0.3,4.1-0.9c1.3-0.5,2.2-1.2,2.5-1.9
			c0.3-0.7,0.7-2.7,1.2-6c0.6-3.3,1.2-7,1.8-11.3c-1.3-0.9-2.7-1.3-4.3-1.3c-1.2,0-2.3,0.3-3.3,1c-0.9,0.8-1.7,2.3-2.4,4.4
			c-0.8,2.9-1.4,5.3-1.6,7.1C698.3,782,698.2,783.7,698.2,785.2z"/>
		<path class="st2" d="M723.6,769.9c0-0.8-0.1-1.3-0.4-1.6c-0.3-0.3-1-0.4-2-0.4c-1.5,0-2.1-0.1-2-0.3c0-0.2,0.2-0.3,0.7-0.4
			c0.5-0.1,1.7-0.3,3.7-0.7c2.5-0.5,3.9-0.8,4.3-0.8c0.2,0,0.4,0.2,0.4,0.6c0,0.2-0.2,1.2-0.5,2.9c-0.4,1.7-0.8,3.7-1.2,6
			c-0.4,2.2-0.8,4.4-1.2,6.4c-0.4,2-0.6,3.4-0.6,4.4c0,1.3,0.2,2.2,0.5,2.7c0.3,0.5,0.9,0.8,1.6,0.7c0.8,0,1.6-0.2,2.4-0.6
			c0.8-0.3,1.2-0.5,1.4-0.5c0.2,0,0.3,0.2,0.3,0.4c0,0.1-0.2,0.3-0.7,0.5c-0.5,0.2-1.5,0.6-3.2,1.3c-2.5,1.1-4.2,1.7-5.1,1.7
			c-1.2,0-1.8-0.7-1.8-2.2c0-0.2,0.1-0.6,0.2-1.2c0.1-0.7,0.2-1.4,0.4-2.3c0.4-1.8,0.8-3.9,1.2-6.2
			C722.9,775,723.5,771.6,723.6,769.9z M726.4,757.9c0-0.9,0.2-1.7,0.5-2.4c0.3-0.7,1-1,2-1c0.7,0,1.2,0.1,1.4,0.2
			c0.2,0.2,0.2,0.6,0.2,1.3c0,0.9-0.2,1.6-0.7,2.3c-0.5,0.7-1.2,1-2.1,1C726.8,759.3,726.4,758.8,726.4,757.9z"/>
		<path class="st2" d="M748.5,782.9c0,2.2-0.5,3.6-1.5,4.4c-0.4,0.4-0.9,0.7-1.3,1c-0.5,0.3-0.9,0.6-1.3,0.9c-1,1-2,1.7-2.8,2.2
			c-0.9,0.5-2.3,0.8-4,0.8c-1.8,0-3.3-0.4-4.7-1.2c0.2-1.1,0.4-2.2,0.6-3.3c0.2-1,0.3-2.1,0.3-3.2c0-0.3,0.1-0.5,0.4-0.5
			c0.2,0,0.4,0.4,0.4,1.2c0,1.3,0.5,2.3,1.5,3.2c0.9,1,2.1,1.5,3.6,1.5c3.7,0,5.5-1.6,5.4-4.6c0-1.4-0.4-2.6-1.2-3.5
			c-0.8-0.9-1.7-1.7-2.9-2.4c-1.1-0.8-2-1.6-2.8-2.6c-0.9-0.9-1.3-2-1.3-3.4c0-2.2,0.6-3.7,1.8-4.6c1.8-1.5,3.1-2.5,4.1-3
			c0.9-0.4,1.9-0.6,3-0.6c1.1,0,2.2,0.2,3.2,0.7c-0.4,1.6-0.7,3-0.7,4.2c0,0.6-0.2,0.8-0.4,0.8c-0.2,0-0.4-0.2-0.4-0.8
			c0-1.2-0.4-2-1.2-2.6c-0.8-0.4-1.8-0.7-3-0.7c-2.2,0-3.3,1.3-3.4,3.8c0.1,1.1,0.6,2.1,1.5,2.9c0.9,0.9,1.8,1.7,3,2.4
			c1.1,0.8,2.1,1.7,3,2.7C748,779.9,748.4,781.3,748.5,782.9z"/>
		<path class="st2" d="M758.7,760.6c2-1.3,4.3-2.3,6.6-3.2v0.5c-1,0.6-1.7,1.5-2.1,2.6c-0.5,1.2-1,3.4-1.5,6.6
			c1.8,0.1,3.6,0.1,5.4,0.1c0,0.3-0.1,0.6-0.2,0.8c-0.2,0.3-0.6,0.4-1.2,0.4c-1.4,0-2.8,0-4.1,0.1c-0.7,3.5-1.3,6.6-1.9,9.4
			c-0.6,2.8-0.9,5.7-0.9,8.7c0,1.2,0.3,2,1,2.5c0.6,0.5,1.2,0.8,2,0.7c0.3,0,0.9-0.1,1.7-0.3c0.9-0.1,1.5-0.2,2-0.3
			c0.2,0.3-0.6,0.8-2.4,1.2c-2.9,0.9-4.9,1.5-6.2,1.5c-0.7,0-1.2-0.2-1.5-0.6c-0.4-0.5-0.7-1.4-0.7-2.7c0-0.5,0.1-1.6,0.3-3.1
			c0.2-1.5,0.4-3.2,0.7-5.2c0.6-4.2,1.3-8.2,2-12c-1.6-0.1-3-0.1-4.1-0.1c-0.4,0-0.6-0.3-0.6-0.7c0-0.3,0.3-0.4,0.8-0.5
			c1.5-0.1,2.9-0.1,4-0.2L758.7,760.6z"/>
		<path class="st2" d="M771.8,783c0,1.5,0.3,2.9,1,4.1c0.6,1.3,1.7,1.9,3.2,2c0.9,0,1.7-0.2,2.5-0.6c0.8-0.3,1.5-0.7,2.2-1.1
			c1.4-1,2.3-1.5,2.6-1.6c0.1,0,0.2,0.2,0.2,0.7c-1.6,1.1-2.9,1.9-3.9,2.7c-1,0.7-1.9,1.3-2.6,1.7c-1.2,0.8-2.7,1.2-4.5,1.2
			c-1.6,0-2.8-0.5-3.7-1.5c-1-1-1.5-2.5-1.5-4.4c0-1.6,0.2-3.5,0.7-5.8c0.5-2.2,1.3-4.8,2.4-7.8c0.6-1.4,1.9-2.9,4-4.6
			c1-0.8,2.1-1.5,3.3-1.9c1.1-0.5,2.3-0.8,3.4-0.8c1.4,0,2.4,0.3,2.9,0.8c0.6,0.5,0.8,1.3,0.8,2.4c0,1.1-0.3,2.2-0.7,3.5
			c-0.4,1.3-0.9,2.1-1.4,2.5c-4.3,2.4-7.8,4.2-10.6,5.5C771.9,780.9,771.8,782,771.8,783z M778.7,766.7c-1,0-1.9,0.5-2.7,1.3
			c-0.8,0.9-1.5,2-2,3.3c-1.1,2.8-1.7,5.2-1.8,7.2c3.2-1.3,5.4-2.6,6.7-3.7c1.2-1.2,1.8-2.8,1.8-5c0-0.8-0.1-1.5-0.3-2.1
			C780.2,767,779.6,766.7,778.7,766.7z"/>
		<path class="st2" d="M804.4,771.7c-0.3-1.8-1.4-2.7-3.3-2.7c-1,0-1.9,0.5-2.8,1.3c-0.9,0.8-1.4,1.4-1.5,1.8
			c-1.8,8.8-2.9,14.9-3.4,18.1c0,0.4-0.2,0.7-0.3,0.8c-0.2,0.1-0.7,0.2-1.3,0.3c-1.5,0.4-2.3,0.7-2.3,0.7c-0.4,0-0.7-0.1-0.7-0.4
			c0-0.2,0.3-1.3,0.8-3c0.4-1.8,0.9-3.8,1.5-6.3c0.6-2.4,1.1-4.8,1.5-7.2c0.4-2.3,0.7-4.2,0.7-5.5c0-0.9-0.1-1.5-0.3-1.7
			c-0.3-0.2-1-0.2-2-0.2c-0.7,0-1.2,0-1.4-0.1c-0.3,0-0.4-0.2-0.4-0.4c0-0.3,0.2-0.4,0.7-0.4c0.5,0,1.6-0.2,3.3-0.4
			c3-0.6,4.5-0.9,4.6-1c0.3,0,0.5,0.1,0.5,0.4c0,0.3-0.1,0.9-0.3,1.8c-0.2,1-0.4,1.7-0.4,2.2c2.3-1.8,3.8-2.9,4.3-3.5
			c0.5-0.4,1.2-0.6,2.1-0.6c1.2,0,2,0.2,2.2,0.5c0.6,0.5,0.9,0.8,0.9,1c0,0.5-0.2,1.1-0.5,1.9c-0.3,0.9-0.6,1.6-0.9,2.1L804.4,771.7
			z"/>
	</g>
</g>
</svg>
