<?xml version="1.0" encoding="utf-8"?>
<!-- Generator: Adobe Illustrator 22.1.0, SVG Export Plug-In . SVG Version: 6.00 Build 0)  -->
<svg version="1.1" id="圖層_1" xmlns="http://www.w3.org/2000/svg" xmlns:xlink="http://www.w3.org/1999/xlink" x="0px" y="0px"
	 viewBox="0 0 223.3 73" style="enable-background:new 0 0 223.3 73;" xml:space="preserve">
<style type="text/css">
	.st0{fill:#FFEC00;}
	.st1{enable-background:new    ;}
	.st2{fill:#1A1311;}
</style>
<rect id="Rectangle_60" y="27.8" class="st0" width="223.3" height="26.2"/>
<g class="st1">
	<path class="st2" d="M59,54c-0.4,0-0.5-0.1-0.4-0.3c0-0.2,0.4-0.3,1.2-0.4c0.9-0.1,2.1-0.2,3.5-0.4c0.6-0.1,1.2-0.2,1.6-0.3
		c0.4-0.1,0.7-0.3,0.7-0.5c0.3-1,0.8-3.2,1.4-6.5c0.6-3.3,1.2-6.9,1.9-11c0.7-4,1.3-7.7,1.8-11c0.4-3.3,0.7-5.3,0.7-6.2
		c0-0.2-0.3-0.4-0.9-0.5c-0.7-0.1-2.7-0.1-6-0.1c-5.5,0-9.6,1.1-12.3,3.1c-2.7,2-4,4.4-4,7.2c0,1.4,0.2,2.5,0.5,3.3
		c0.3,0.7,0.6,1.3,1,1.7c0.3,0.4,0.7,0.7,1,1c0.3,0.3,0.4,0.8,0.4,1.5c0,0.6-0.2,1.1-0.7,1.5c-0.6,0.5-1.1,0.8-1.8,0.8
		c-0.8,0-1.6-0.5-2.2-1.6c-0.6-0.9-0.9-2.2-0.9-3.8c0-1.5,0.5-3.3,1.4-5.4c0.9-2,2-3.7,3.3-5.1c2.1-2.1,4.2-3.6,6.2-4.4
		c2.1-0.8,4.9-1.1,8.3-1.1c4.9,0.2,10,0.4,15.2,0.6c3.8,0,6.3-0.1,7.5-0.5c1-0.4,1.5-1.3,1.5-2.6c0-0.7-0.2-1.2-0.5-1.6
		c-0.3-0.4-0.5-0.7-0.5-1c0-0.3,0.4-0.7,1.1-1.1c0.6-0.4,1.1-0.6,1.3-0.6c0.4,0,0.8,0.2,1.1,0.6c0.1,0.2,0.2,0.5,0.3,0.9
		c0,0.4,0.1,0.9,0.1,1.6c0,0.3-0.2,0.8-0.6,1.4c-0.4,0.6-1.1,1.3-1.8,2c-0.8,0.6-1.6,1.2-2.5,1.6c-0.9,0.5-1.9,0.7-2.9,0.7
		c-3.3,0-5.8,0-7.6-0.1c-1.1,4.5-2.2,10.8-3.4,18.8c-1.4,8-2,13.3-2.1,15.9c0,0.2,0.2,0.4,0.7,0.5c0.4,0.1,0.8,0.2,1.4,0.4
		c1.2,0.2,2.1,0.3,2.7,0.3c0.7,0.1,1.1,0.2,1.2,0.4c0,0.2-0.1,0.3-0.5,0.3H59z"/>
	<path class="st2" d="M87.1,45.3c0,1.5,0.3,2.9,1,4.1c0.6,1.3,1.7,1.9,3.2,2c0.9,0,1.7-0.2,2.5-0.6c0.8-0.3,1.5-0.7,2.2-1.1
		c1.4-1,2.3-1.5,2.6-1.6c0.1,0,0.2,0.2,0.2,0.7c-1.6,1.1-2.9,1.9-3.9,2.7c-1,0.7-1.9,1.3-2.6,1.7c-1.2,0.8-2.7,1.2-4.5,1.2
		c-1.6,0-2.8-0.5-3.7-1.5c-1-1-1.5-2.5-1.5-4.4c0-1.6,0.2-3.5,0.7-5.8c0.5-2.2,1.3-4.8,2.4-7.8c0.6-1.4,1.9-2.9,4-4.6
		c1-0.8,2.1-1.5,3.3-1.9c1.1-0.5,2.3-0.8,3.4-0.8c1.4,0,2.4,0.3,2.9,0.8c0.6,0.5,0.8,1.3,0.8,2.4c0,1.1-0.3,2.2-0.7,3.5
		c-0.4,1.3-0.9,2.1-1.4,2.5c-4.3,2.4-7.8,4.2-10.6,5.5C87.2,43.2,87.1,44.2,87.1,45.3z M94,28.9c-1,0-1.9,0.5-2.7,1.3
		c-0.8,0.9-1.5,2-2,3.3c-1.1,2.8-1.7,5.2-1.8,7.2c3.2-1.3,5.4-2.6,6.7-3.7c1.2-1.2,1.8-2.8,1.8-5c0-0.8-0.1-1.5-0.3-2.1
		C95.4,29.3,94.9,29,94,28.9z"/>
	<path class="st2" d="M116.4,27.9c1.5,0,2.4,0.2,2.9,0.4c0.2,0,0.5,0.1,0.7,0.2c0.3,0.1,0.6,0.2,1,0.2c0.4-0.6,1-1.1,1.6-1.4
		c0.7-0.3,1.1-0.4,1.3-0.4c0.4,0,0.6,0.3,0.6,0.7c0,0.1-0.2,1-0.6,2.7c-0.4,1.8-0.9,3.9-1.4,6.3c-0.5,2.4-1,4.8-1.4,7
		c-0.5,2.2-0.7,3.9-0.7,5.1c0,1.1,0.1,1.8,0.3,2.3c0.2,0.4,0.6,0.7,1,0.7c0.5,0,1.2-0.2,2.1-0.5c0.9-0.2,1.4-0.3,1.5-0.4
		c0.2,0,0.3,0.1,0.3,0.3c0,0.2-0.7,0.6-2.1,1c-2.7,1.1-4.4,1.7-5.3,1.9c-0.9,0.2-1.5,0.3-1.7,0.3c-0.3,0-0.5-0.1-0.7-0.4
		c-0.2-0.2-0.4-0.6-0.4-1.2c0-0.6,0.1-1.3,0.2-1.9c-1.7,0.6-3.5,1.3-5.5,2.1c-2,0.9-3.8,1.4-5.4,1.4c-0.6,0-1-0.2-1.3-0.7
		c-0.3-0.5-0.5-1.6-0.5-3.2c-0.1-1.7,0.2-3.8,0.6-6.3c0.5-2.5,1.8-6,3.9-10.5c0.3-0.6,0.8-1.2,1.5-1.9c0.7-0.7,1.5-1.3,2.4-1.8
		C113.3,28.6,115,27.9,116.4,27.9z M115.3,29.3c-1.3,0-2.4,0.7-3.4,2.1c-1,1.5-1.8,3.3-2.5,5.4c-1.3,4.7-2,8.3-2,10.9
		c0,1.4,0.2,2.3,0.6,2.9c0.3,0.5,0.9,0.8,1.5,0.7c1.4,0,2.8-0.2,4-0.7c0.6-0.2,1.1-0.4,1.5-0.7c0.4-0.2,0.6-0.4,0.6-0.6
		c0.3-1.6,1-4.9,2.2-9.8c0.5-2.2,0.9-4.1,1.3-5.8c0.4-1.6,0.6-2.5,0.6-2.7c0-0.2-0.2-0.5-0.5-0.7c-0.4-0.2-0.8-0.4-1.3-0.6
		C116.8,29.5,115.9,29.4,115.3,29.3z"/>
	<path class="st2" d="M130.8,54.6c0.8-4.1,1.6-8.3,2.5-12.6c0.9-4.3,1.4-7.7,1.5-10c0-0.7-0.1-1.1-0.2-1.3c-0.2-0.1-0.8-0.2-1.7-0.2
		c-1.3,0-2.1-0.1-2.4-0.2c-0.3-0.1-0.4-0.2-0.4-0.3c0-0.2,0.2-0.3,0.6-0.5c0.3-0.1,0.7-0.2,1.3-0.3c0.5-0.1,1.3-0.3,2.2-0.4
		c0.9-0.2,1.9-0.4,2.8-0.7c0.9-0.2,1.5-0.3,2-0.3c0.4,0,0.7,0,0.8,0.1c0.1,0.1,0.1,0.3,0.1,0.5c0,0.5-0.1,1-0.2,1.6
		c-0.2,0.7-0.3,1.2-0.4,1.6c1.3-0.6,3.2-1.3,5.7-2.3c2.4-0.9,4.1-1.4,5.1-1.4c0.7,0,1,0.3,1,1c0,1-0.1,1.9-0.2,2.7
		c1.4-0.6,3.4-1.3,5.9-2.3c2.4-0.9,4.3-1.4,5.5-1.4c1,0,1.5,0.6,1.5,1.8c0,0.4-0.1,1.3-0.4,2.8c-0.3,1.5-0.7,3.3-1.2,5.5
		c-1,4.5-1.6,8.2-1.6,11.3c0,1,0.2,1.7,0.5,2.1c0.3,0.4,0.8,0.6,1.5,0.6c0.4,0,1-0.1,1.7-0.4c0.6-0.2,1.1-0.2,1.3-0.2
		c0.2,0,0.3,0.1,0.3,0.4c-0.2,0.2-1.5,0.7-3.9,1.4c-1.1,0.3-2,0.6-2.9,0.8c-0.9,0.2-1.4,0.4-1.7,0.4c-0.9,0-1.3-0.4-1.3-1.3
		c0-0.4,0.1-0.9,0.2-1.5c0.1-0.6,0.2-1.4,0.3-2.2c0.3-1.7,0.7-3.7,1-5.8c0.4-2.2,0.8-4.2,1.1-6.1c0.3-1.8,0.4-3.2,0.4-4
		c0-1-0.2-1.7-0.5-2.1c-0.3-0.3-0.7-0.5-1.2-0.5c-1,0-2.1,0.2-3.3,0.6c-1.2,0.4-2.2,0.8-3.1,1.3l-3.5,21l-4.2,0.7
		c0.6-2.9,1.2-6.5,2-10.9c0.8-4.4,1.2-7.6,1.2-9.7c0-1.4-0.1-2.2-0.3-2.6c-0.3-0.3-0.8-0.4-1.5-0.4c-0.8,0-1.8,0.3-3.2,0.8
		c-0.7,0.2-1.2,0.4-1.6,0.6c-0.5,0.2-0.9,0.4-1,0.6c-1.5,6.1-2.8,13.1-4,20.8L130.8,54.6z"/>
</g>
</svg>
