<svg xmlns="http://www.w3.org/2000/svg" viewBox="0 0 66.02 27.47"><defs><style>.cls-1{fill:#231815;}</style></defs><title>contact</title><g id="圖層_2" data-name="圖層 2"><g id="header"><path class="cls-1" d="M8.75,25.88v-5.8H8.37v-.69h3v.69h-.51v7.3h-.65V26l-.23.11c-.52.26-.94.45-1.28.58l-.34-.6A3.63,3.63,0,0,1,8.75,25.88Zm.66-4.56h.75V20.08H9.41Zm0,2h.75V22H9.41Zm0,2.28.72-.38V24H9.41v1.59Zm3.78-2.44-2.16.28a3.79,3.79,0,0,0-.16-.62l.62-.08a6.65,6.65,0,0,0,.66-.85,5.8,5.8,0,0,0-1.15-1c.11-.17.22-.35.34-.52a.88.88,0,0,1,.24.16A13.82,13.82,0,0,0,12.34,19q.27.16.54.3a11.94,11.94,0,0,1-.83,1.58c.14.12.28.26.45.43A5.88,5.88,0,0,0,13,20.06l.59.17a6.7,6.7,0,0,1-1.32,2.37l.71-.1c-.06-.14-.12-.27-.18-.38l.58-.24A7.71,7.71,0,0,1,14,23.34l-.6.21Zm-.32,2.82H11.84a.27.27,0,0,1-.3-.31v-2h.63v1.5c0,.11.05.17.16.17H13v-1.7h.62v2.11a1.74,1.74,0,0,1-.1.46,2.35,2.35,0,0,1-1.61,1.23l-.32-.64a3.35,3.35,0,0,0,.63-.2C12.6,26.4,12.84,26.19,12.9,25.94Zm3.18-3-1.92.31a2.84,2.84,0,0,0-.18-.6l.34-.05a6.76,6.76,0,0,0,.57-.71,6.24,6.24,0,0,0-1.15-1l.33-.53a1.82,1.82,0,0,1,.28.19c.25-.46.49-1,.73-1.51l.54.29a11.39,11.39,0,0,1-.83,1.61l.43.39a5.24,5.24,0,0,0,.59-1.41l.6.17a6.9,6.9,0,0,1-1.28,2.33l.81-.14-.13-.42.6-.17a6.51,6.51,0,0,1,.36,1.49l-.61.13C16.13,23.16,16.1,23,16.08,22.91ZM15,25.39h.78a.11.11,0,0,0,.11-.1V23.66h.62v2.19c0,.11-.06.16-.17.16H15v1.34h-.69v-3.8H15Z"/><path class="cls-1" d="M22.16,24.16l.68.12c-.16,1.23-.29,2.07-.4,2.55l-.65-.16A13.73,13.73,0,0,0,22.16,24.16Zm1.09-.63-1.31.1A3.29,3.29,0,0,0,21.8,23l.52,0c.25-.26.52-.58.81-.95a6,6,0,0,0-1.31-1l.33-.61a1.67,1.67,0,0,1,.33.19c.25-.45.49-.95.73-1.48l.6.32A15.15,15.15,0,0,1,23,21l.51.44a8.1,8.1,0,0,0,.82-1.76l.66.21a6.42,6.42,0,0,1-.78,1.58,11.75,11.75,0,0,1-1.05,1.41l1.25-.11c-.11-.35-.19-.57-.22-.67l.67-.17c.3,1,.47,1.56.52,1.75l-.67.14c0-.12-.06-.24-.1-.36l-.63.06v3.84h-.73Zm1.75.58.36,2.18-.69.12-.35-2.14Zm1.33-3.33a5.43,5.43,0,0,1-.88.93L25,21.18a4,4,0,0,0,.85-.86,6.76,6.76,0,0,0,.6-1.28l.73,0c0,.11-.07.21-.1.32h2.24l.54.34A7.05,7.05,0,0,1,28.38,22a7.92,7.92,0,0,0,1.87,1l-.5.62a8.78,8.78,0,0,1-1.88-1.18,11.5,11.5,0,0,1-2.13,1.2L25.3,23a12.69,12.69,0,0,0,2-1.05A11.76,11.76,0,0,1,26.33,20.78ZM29.75,27c0,.08,0,.11-.11.11H25.83c-.07,0-.1,0-.1-.11V23.83c0-.07,0-.11.1-.11h3.81a.1.1,0,0,1,.11.11ZM29,24.45H26.52s0,0,0,0v1.89s0,0,0,0H29s0,0,0,0V24.49S29,24.45,29,24.45Zm-2.22-4.34a8.56,8.56,0,0,0,1.1,1.41,8.5,8.5,0,0,0,1-1.32c0-.13,0-.19-.05-.19h-2A.31.31,0,0,0,26.74,20.11Z"/><path class="cls-1" d="M37.18,20.73l.46.56a5.22,5.22,0,0,1-2,1.05l-.33-.66A4.82,4.82,0,0,0,37.18,20.73Zm3.7,5.48H38.2l.16.58a13,13,0,0,1-2.71.66l-.16-.72a18.62,18.62,0,0,0,2.31-.52H36.57c-.07,0-.1,0-.1-.11V22.31a.09.09,0,0,1,.1-.1h6c.07,0,.11,0,.11.1V26.1a.1.1,0,0,1-.11.11H41.16a20.21,20.21,0,0,1,2.4.58l-.23.68a14.33,14.33,0,0,0-2.62-.62Zm-5.34-6.79h2v.69h-2Zm1.69,3.93h4.65v-.44a0,0,0,0,0,0,0H37.26s0,0,0,0Zm4.65,1.71H37.23v.44a0,0,0,0,0,0,.05h4.58s0,0,0-.05Zm-4.65-.62h4.65V24H37.23Zm3.05-3.69a3.37,3.37,0,0,1-2.43,1.38l-.28-.7.57-.09a2.54,2.54,0,0,0,1.72-1.21h-1a5.36,5.36,0,0,1-.83.72l-.53-.52A4.29,4.29,0,0,0,38.85,19l.62.38-.1.14H43.1l.41.41a11.37,11.37,0,0,1-1.14,1.26l-.57-.46.57-.55H40.66a3.42,3.42,0,0,0,2.93,1.44l-.22.74H43.3A4.15,4.15,0,0,1,40.28,20.75Z"/><path class="cls-1" d="M48.88,20.53h3.45v.73H48.88ZM52,27a.1.1,0,0,1-.11.11H49.22a.1.1,0,0,1-.1-.11V24c0-.07,0-.1.1-.1h2.63c.07,0,.11,0,.11.1ZM49.3,21.67h2.5v.69H49.3Zm0,1.12h2.5v.69H49.3Zm0-3.42H51.8v.73H49.34Zm1.86,5.2H49.88a0,0,0,0,0,0,0v1.81a0,0,0,0,0,0,0H51.2a0,0,0,0,0,0,0V24.6A0,0,0,0,0,51.2,24.57Zm2-1.52V20.11h-.87v-.76h3.41c.17,0,.25,0,.26.15a35,35,0,0,0,.21,6.64.12.12,0,0,0,.14.08s0,0,.05-.09c0-.25,0-.62,0-1.12l.76.15a4.16,4.16,0,0,1-.44,2.09.54.54,0,0,1-.37.18.6.6,0,0,1-.4-.18,2,2,0,0,1-.46-1,32.24,32.24,0,0,1-.25-6c0-.07,0-.12-.11-.14H54v2.7l.74-.3.28.71a7.68,7.68,0,0,1-1.05.4c-.06.51-.12.93-.17,1.26a5.81,5.81,0,0,1-1,2.36L52.08,27a6.21,6.21,0,0,0,1.13-3.14c-.36.11-.67.19-.92.25L52,23.39Z"/><path class="cls-1" d="M11.55,10a6.43,6.43,0,0,1-5.12,2.46A6.24,6.24,0,1,1,6.43,0a6.43,6.43,0,0,1,5.12,2.46L9.72,3.84A3.91,3.91,0,0,0,6.43,2.1a4.14,4.14,0,0,0,0,8.28A4.08,4.08,0,0,0,9.75,8.72Z"/><path class="cls-1" d="M17.77,2.75a4.87,4.87,0,1,1,0,9.73,4.87,4.87,0,1,1,0-9.73Zm0,7.86a2.94,2.94,0,0,0,3-3,3,3,0,1,0-6,0A2.94,2.94,0,0,0,17.77,10.61Z"/><path class="cls-1" d="M24.69,3h2V4.16h0a3.27,3.27,0,0,1,2.83-1.41,3.7,3.7,0,0,1,3.59,3.91v5.58h-2V7.1c0-1.68-.87-2.37-2.19-2.37a2.16,2.16,0,0,0-2.27,2.33v5.18h-2Z"/><path class="cls-1" d="M35.76,4.87H34.63V3h1.13V.54l2-.54V3h1.42V4.87H37.74v7.37h-2Z"/><path class="cls-1" d="M47.76,11.11h0a3.78,3.78,0,0,1-3,1.37A4.76,4.76,0,0,1,39.9,7.62a5,5,0,0,1,4.88-4.87,3.43,3.43,0,0,1,2.94,1.37h0V3h2v9.24h-2Zm-2.82-.5a3,3,0,1,0-2.94-3A3,3,0,0,0,44.94,10.61Z"/><path class="cls-1" d="M59.08,6a2.75,2.75,0,0,0-2.41-1.39,2.94,2.94,0,0,0-3,3,2.94,2.94,0,0,0,3,3,2.76,2.76,0,0,0,2.41-1.39l1.73,1a4.93,4.93,0,0,1-4.14,2.23,4.87,4.87,0,1,1,0-9.73A4.75,4.75,0,0,1,60.81,5Z"/><path class="cls-1" d="M62.62,4.87H61.5V3h1.12V.54l2-.54V3H66V4.87H64.61v7.37h-2Z"/></g></g></svg>