<svg xmlns="http://www.w3.org/2000/svg" viewBox="0 0 53.08 18.18"><defs><style>.cls-1{fill:#fff;}</style></defs><title>login</title><g id="圖層_2" data-name="圖層 2"><g id="header"><path class="cls-1" d="M0,.28H2.51V11.5H7.87V8.25h2.51v5.64H0Z"/><path class="cls-1" d="M17.57,3.12a5.53,5.53,0,1,1,0,11.05,5.53,5.53,0,1,1,0-11Zm0,8.93A3.34,3.34,0,0,0,21,8.65a3.4,3.4,0,1,0-6.8,0A3.34,3.34,0,0,0,17.57,12.05Z"/><path class="cls-1" d="M35.45,12.72A5.31,5.31,0,0,1,30,18.18a5.79,5.79,0,0,1-4.42-2.08l1.84-1.35a3.29,3.29,0,0,0,2.48,1.31A3.14,3.14,0,0,0,33.32,13v-.7a4.44,4.44,0,0,1-3.57,1.63,5.07,5.07,0,0,1-5.09-5.35A5.2,5.2,0,0,1,30,3.12a3.92,3.92,0,0,1,3.27,1.52h0V3.4h2.13Zm-5.25-1a3.13,3.13,0,0,0,3.12-3.26,3.14,3.14,0,1,0-6.28,0A3.12,3.12,0,0,0,30.2,11.77Z"/><path class="cls-1" d="M39.47,0a1.26,1.26,0,1,1-1.25,1.26A1.25,1.25,0,0,1,39.47,0ZM38.35,3.4H40.6V13.89H38.35Z"/><path class="cls-1" d="M43.5,3.4h2.26V4.72h0A3.72,3.72,0,0,1,49,3.12a4.2,4.2,0,0,1,4.07,4.44v6.33H50.83V8.06c0-1.91-1-2.69-2.5-2.69A2.45,2.45,0,0,0,45.76,8v5.87H43.5Z"/></g></g></svg>