<svg xmlns="http://www.w3.org/2000/svg" viewBox="0 0 48.8 27.46"><defs><style>.cls-1{fill:#231815;}</style></defs><title>news</title><g id="圖層_2" data-name="圖層 2"><g id="header"><path class="cls-1" d="M.67,26.33V23H0v-.63H8.26V23H4v4.39H3.3v-.61l-3.08.33-.13-.68ZM7.33,21.7a.17.17,0,0,1-.19.19h-6C1,21.89,1,21.83,1,21.7V19.51c0-.12.06-.18.17-.18h6c.13,0,.19.07.19.18ZM1.4,23.56H3.3V23H1.4Zm0,1.3H3.3v-.67H1.4Zm0,1.39,1.9-.2v-.56H1.4Zm.28-5.93H6.6V20s0,0,0,0H1.7s0,0,0,0Zm4.92.58H1.68v.36s0,0,0,0H6.56s0,0,0,0Zm-.33,5.55a6.27,6.27,0,0,1-1.53,1l-.5-.58A5.68,5.68,0,0,0,5.79,26,8,8,0,0,1,4.66,24.6l.55-.36a9,9,0,0,0,1,1.35A3.55,3.55,0,0,0,7,24.27c0-.16,0-.23-.15-.22H4.58v-.63H7.41l.37.29A5.89,5.89,0,0,1,7,25.59L6.71,26a7.71,7.71,0,0,0,1.53.8l-.46.6A7.28,7.28,0,0,1,6.27,26.45Z"/><path class="cls-1" d="M16,24.87v2.51h-.73V25A9.39,9.39,0,0,1,14,26.58l-.63-.38a8,8,0,0,0,1.71-2.05H13.55v-.69h1.76v-.68H13.59v-.69h2.49a7.16,7.16,0,0,0,.47-1.44l.67.21a8.49,8.49,0,0,1-.39,1.23h.91v.69H16v.68h1.7v.69H16.22c.46.42.89.86,1.32,1.33L17,26C16.74,25.63,16.41,25.26,16,24.87Zm-.61-5.19V19h.76v.66H17.7v.73h-4v-.73Zm-1.22,1.2.57-.27a5.64,5.64,0,0,1,.49,1.14l-.59.23A6.52,6.52,0,0,0,14.21,20.88Zm5.85,1.45H18.91v1.29a5.15,5.15,0,0,1-.29,1.76,6.58,6.58,0,0,1-1.14,1.87l-.61-.54A5.26,5.26,0,0,0,18,25a4.64,4.64,0,0,0,.22-1.38V19.69c0-.17,0-.26.17-.27a16.14,16.14,0,0,0,2.83-.32l.28.76a17.5,17.5,0,0,1-2.44.3.12.12,0,0,0-.12.13v1.27h2.8v.77h-.88v5h-.77Z"/><path class="cls-1" d="M28.25,23.81,29,24a8,8,0,0,1-1.4,3.33l-.74-.35A7.22,7.22,0,0,0,28.25,23.81ZM27,22.07l.44-.63A9.16,9.16,0,0,1,29,22.55l-.47.62A10.79,10.79,0,0,0,27,22.07Zm.21-2.18.44-.63a10,10,0,0,1,1.62,1.19l-.49.61A9.92,9.92,0,0,0,27.18,19.89Zm3.06,5.56V27.3h-.77v-6a.18.18,0,0,1,.2-.19h2.16v-2h.76v2h2.09a.17.17,0,0,1,.19.19v5.26a.85.85,0,0,1-.36.71,2.41,2.41,0,0,1-1.74.08l0-.85c.62.18,1,.21,1.16.11a.42.42,0,0,0,.2-.36v-.76Zm-.67-5.75.59-.5a8.29,8.29,0,0,1,1,1.29l-.62.47A8.21,8.21,0,0,0,29.57,19.7Zm.67,3.16h3.87v-1s0-.07-.07-.07H30.3s-.06,0-.06.07Zm0,1.83h3.87V23.62H30.24Zm4-5.59.63.44a7.72,7.72,0,0,1-1,1.39l-.62-.46A8.45,8.45,0,0,0,34.2,19.1Z"/><path class="cls-1" d="M41.39,24.71l.75.18a6.21,6.21,0,0,1-1.08,2.28l-.7-.35A5.07,5.07,0,0,0,41.39,24.71ZM48,24.06c0,.07,0,.11-.12.11H41.3c-.07,0-.1,0-.1-.11V19.83c0-.08,0-.11.1-.11h2.51a3.48,3.48,0,0,0,.32-.72l.7.32c0,.12-.1.25-.16.4h3.18c.08,0,.12,0,.12.11ZM42,21H47.2v-.5a0,0,0,0,0,0,0H42s0,0,0,0Zm5.24,2H42v.46s0,0,0,0h5.18s0,0,0,0ZM42,22.21H47.2v-.5H42Zm.71,2.26h.77v1.6a.67.67,0,0,0,.06.36.51.51,0,0,0,.42.14h1.83a.6.6,0,0,0,.51-.2,2.89,2.89,0,0,0,.07-.88l.78.1a2.89,2.89,0,0,1-.2,1.41.88.88,0,0,1-.36.29,2.32,2.32,0,0,1-.55.05H43.59a1,1,0,0,1-.54-.15,1.09,1.09,0,0,1-.38-1Zm1.61.31.68-.34a12.51,12.51,0,0,1,.75,1.44l-.69.29A13.14,13.14,0,0,0,44.28,24.78Zm2.73,0,.65-.4a11.75,11.75,0,0,1,1.14,2.4l-.72.27A12.25,12.25,0,0,0,47,24.79Z"/><path class="cls-1" d="M5,4.89v7.35H2.78V0l7.73,7.6V.25h2.21V12.48Z"/><path class="cls-1" d="M24.23,10.23a5.56,5.56,0,0,1-4.3,2.25,4.87,4.87,0,1,1,0-9.73,5,5,0,0,1,4.8,5.19V8.3H17.05a2.78,2.78,0,0,0,2.83,2.43A3.3,3.3,0,0,0,22.55,9.3ZM22.4,6.66a2.77,2.77,0,0,0-2.73-2.15,2.63,2.63,0,0,0-2.62,2.15Z"/><path class="cls-1" d="M25.54,3h2.14l1.64,5h0l1.93-4.43L33.22,8h0L34.9,3H37l-3.57,9.48-2.15-5h0l-2.16,5Z"/><path class="cls-1" d="M46.63,6.61A4.1,4.1,0,0,1,46.78,8a4.47,4.47,0,0,1-4.73,4.5A5.88,5.88,0,0,1,38,10.82l1.55-1.31a3.74,3.74,0,0,0,2.63,1.1,2.35,2.35,0,0,0,2.54-2.25H37.83a3.87,3.87,0,0,1-.11-.95,4.55,4.55,0,0,1,4.71-4.66,4.84,4.84,0,0,1,3.7,1.6l-1.41,1.3a3,3,0,0,0-2.33-1.14,2.3,2.3,0,0,0-2.57,2.1Z"/></g></g></svg>