<svg xmlns="http://www.w3.org/2000/svg" viewBox="0 0 62.55 62.55"><defs><style>.cls-1,.cls-2{fill:#fff;}.cls-2{fill-rule:evenodd;}</style></defs><title>Twitter</title><g id="圖層_2" data-name="圖層 2"><g id="footer"><path class="cls-1" d="M31.27,4.28a27,27,0,1,1-27,27,27,27,0,0,1,27-27m0-4.28A31.28,31.28,0,1,0,62.55,31.27,31.27,31.27,0,0,0,31.27,0Z"/><path class="cls-2" d="M25.57,40.54a7.38,7.38,0,0,1-6.84-5.11,7.13,7.13,0,0,0,3.15-.09l.11-.05a7.36,7.36,0,0,1-4.78-3.37A7.23,7.23,0,0,1,16.13,28a7.32,7.32,0,0,0,3.28.89,7.4,7.4,0,0,1-3-4.46,7.31,7.31,0,0,1,.79-5.33A21.06,21.06,0,0,0,32.33,26.8c0-.3-.08-.55-.11-.81a7.35,7.35,0,0,1,12.49-6.08.4.4,0,0,0,.4.12,14.9,14.9,0,0,0,4.27-1.65l.1-.05h.05a7.49,7.49,0,0,1-3.15,4,14.65,14.65,0,0,0,4.1-1.1l0,0c-.29.37-.56.74-.85,1.1A14.6,14.6,0,0,1,47,24.9a.22.22,0,0,0-.12.23,21.06,21.06,0,0,1-.14,3.27A21.51,21.51,0,0,1,44.83,35a21.08,21.08,0,0,1-4,5.79,19.58,19.58,0,0,1-10.11,5.63,21.56,21.56,0,0,1-4.09.49A20.8,20.8,0,0,1,14.89,43.7l-.17-.11a14.8,14.8,0,0,0,7.35-1A15,15,0,0,0,25.57,40.54Z"/></g></g></svg>