<svg xmlns="http://www.w3.org/2000/svg" viewBox="0 0 62.55 62.55"><defs><style>.cls-1{fill:#fff;}</style></defs><title>IG</title><g id="圖層_2" data-name="圖層 2"><g id="footer"><path class="cls-1" d="M31.27,4.28a27,27,0,1,1-27,27,27,27,0,0,1,27-27m0-4.28A31.28,31.28,0,1,0,62.55,31.27,31.27,31.27,0,0,0,31.27,0Z"/><path class="cls-1" d="M47.9,23.09a8.8,8.8,0,0,0-2.68-5.66A9.2,9.2,0,0,0,39.15,15c-3.9-.21-13.14-.34-16.39.19a8.36,8.36,0,0,0-7.17,6.43c-.79,2.82-.63,15.81-.17,18.6a8.38,8.38,0,0,0,6.66,7.22c2.61.68,15.45.59,18.33.12a8.38,8.38,0,0,0,7.26-6.62C48.43,38,48.16,25.7,47.9,23.09Zm-3,16.55a5.6,5.6,0,0,1-5.27,5c-2.68.3-14.61.46-17.09-.24a5.43,5.43,0,0,1-4.12-4.68,110.83,110.83,0,0,1,0-16.71,5.6,5.6,0,0,1,5.25-5,118.14,118.14,0,0,1,16.3.07,5.61,5.61,0,0,1,5,5.28C45.21,26.09,45.3,36.72,44.85,39.64ZM31.61,22.84a8.5,8.5,0,1,0,8.49,8.5A8.5,8.5,0,0,0,31.61,22.84Zm-.06,14a5.49,5.49,0,1,1,5.54-5.44A5.49,5.49,0,0,1,31.55,36.82Zm10.87-14.3a2,2,0,1,1-2-2A2,2,0,0,1,42.42,22.52Z"/><path class="cls-1" d="M47.9,23.09a8.8,8.8,0,0,0-2.68-5.66A9.2,9.2,0,0,0,39.15,15c-3.9-.21-13.14-.34-16.39.19a8.36,8.36,0,0,0-7.17,6.43c-.79,2.82-.63,15.81-.17,18.6a8.38,8.38,0,0,0,6.66,7.22c2.61.68,15.45.59,18.33.12a8.38,8.38,0,0,0,7.26-6.62C48.43,38,48.16,25.7,47.9,23.09Zm-3,16.55a5.6,5.6,0,0,1-5.27,5c-2.68.3-14.61.46-17.09-.24a5.43,5.43,0,0,1-4.12-4.68,110.83,110.83,0,0,1,0-16.71,5.6,5.6,0,0,1,5.25-5,118.14,118.14,0,0,1,16.3.07,5.61,5.61,0,0,1,5,5.28C45.21,26.09,45.3,36.72,44.85,39.64ZM31.61,22.84a8.5,8.5,0,1,0,8.49,8.5A8.5,8.5,0,0,0,31.61,22.84Zm-.06,14a5.49,5.49,0,1,1,5.54-5.44A5.49,5.49,0,0,1,31.55,36.82Zm10.87-14.3a2,2,0,1,1-2-2A2,2,0,0,1,42.42,22.52Z"/></g></g></svg>