<svg xmlns="http://www.w3.org/2000/svg" viewBox="0 0 136.07 134.56"><defs><style>.cls-1,.cls-2,.cls-3{fill:#fff;}.cls-2{font-size:39.18px;}.cls-2,.cls-3{font-family:Insignia;}.cls-3{font-size:25.64px;}</style></defs><title>資產 5</title><g id="圖層_2" data-name="圖層 2"><g id="footer"><path class="cls-1" d="M4.93,30.48a2.58,2.58,0,0,1-2.37.13,9.37,9.37,0,0,0-1.86-1l-.68,0,0-.22c.91-.6,2.43-1.72,3.55-1.71a2.74,2.74,0,0,1,1.73.78A1.4,1.4,0,0,1,4.93,30.48Zm21.71,1.71.05.23c-1.19,1.07-2.4,2.12-3.59,3.19a22.22,22.22,0,0,1-4.8,3.63,5.6,5.6,0,0,1-3.34.5c-.46-.07-1.07-.23-1.48.13-.66.6-.07,2.74,0,3.57L11,43.21c.32-1.06.41-1.78.74-2.82L6.12,34.18,4.5,35.63l-1-1.11,1.55-1.39V31.8L8,30.23l0,1.36,6.12,6.83a3,3,0,0,0,2.15-.35,21.57,21.57,0,0,0,5-3.8c1.59-1.43,3.13-2.88,4.63-4.41l.22.15C25.75,31,25.44,31.85,26.64,32.19ZM14.73,18.48l8.9,10a4.46,4.46,0,0,1,.8,1.13c.47,1.2-.95,2.51-1.58,3.07-1.21,1.09-.81,0-2.07-.14A4.7,4.7,0,0,0,19,33.2l-.19-.28c.7-.53,1.36-1.07,2-1.65.15-.14.69-.62.67-.85a1.71,1.71,0,0,0-.51-.84L13.26,21,8,25.72c2.22,2.47,3.12,3.51,5.24,6,1.83,2.15,2,3.47,1.38,6.51l-.27-.09c-.72-2-2.66-4.23-4.49-6.28l-5.66-6.3,2.05-1.83.62.7,5.23-4.7-.2-1.32L14.59,17Zm.8,8.36.49.54-2,1.81-.49-.54L12.06,30l-1.18-1.31,1.47-1.32-.63-.7-1.23,1.1L9.36,26.47l1.22-1.1-.77-.87,2-1.8.79.87,1.31-1.18L15,23.65l-1.31,1.18.62.7,1.43-1.29L17,25.55Zm2.58.92,2.72,3-1.74,1.56L18.77,32l-1,.92.24.27-1.67,1.5-3.56-4,1.67-1.5.31.34L16,28.4l0-.66,2-.9Zm-1.3,2-1,.92.91,1,1-.92Z"/><path class="cls-1" d="M42,3.91,50.88,1.6,51.46.27l4-.27-.77,1.31,4.69,18.05-3.51.91-.41-1.58-9,2.33.42,1.63-3.39.87L38.37,3.86,41.77,3Zm10.8,4.75L51.36,3.07l-9,2.33L43.85,11ZM55,17.14l-1.81-7-9,2.33,1.81,7Z"/><path class="cls-1" d="M91.75,5.86l-.59,2.59,2.68.61,1.31-.76,3.3,1.5-1.33.87-1.87,8.16a1.25,1.25,0,0,1-1.39,1,8.13,8.13,0,0,1-2-.19c-1.64-.37-.42-.66-1-1.61a4.37,4.37,0,0,0-1.49-.9l.12-.32c.49.15.95.28,1.44.39s1,.23,1.18-.44l1.42-6.14L90.81,10,88.19,21.54l-3.37-.77L87.43,9.25l-2.69-.61-2,8.68-3.29-.74L82,5.57l3.29.75-.17.76,2.68.61.59-2.6L80.08,3.22l.33-1.48,9,2.05c-.9-1.08-.31-1.23-.65-2.3a4,4,0,0,0-.75-1l.1-.24c1.31,0,5,.48,4.58,2.92-.1.59-.71.85-1.22,1l8.65,2-.32,1.48Z"/><path class="cls-1" d="M114.32,26l1-1.15,6.24,5.27.66-.78,2.66,2.24-.67.79,6.15,5.2-1,1.17-6.17-5.22-3.81,4.51-2.65-2.25,2.58-3.05c-.68,0-1.34,0-2-.09a18.35,18.35,0,0,1-6.66-2.34l0-.25a13.17,13.17,0,0,0,6.68-.37L120,32l.57-.68ZM129.4,20a11.75,11.75,0,0,1-2.36.73l-.38.45,3.28,2.78c-.49-1.47.67-1.54.45-3.19h.27a4.84,4.84,0,0,1,2.05,1.59,2.15,2.15,0,0,1,.3,2.58c-.46.55-.72.54-1.37.46l4.43,3.75-.85,1L131,26.57l-.58.68,3.37,2.85-.87,1-3.37-2.85-.63.75,3.37,2.85-.84,1L128.08,30l-.73.87,4.36,3.69-.9,1.07-9.57-8.09-.27.31-2.53-2.14,4.42-5.22c-1-.25-2-.53-3-.84l0-.32c.37,0,.76-.05,1.14-.08a17.62,17.62,0,0,0,4.72-1.58l.78-.46ZM125.72,28l-2.84-2.4-.74.87L125,28.91Zm-1.8,6.78c.1.56.22,1.13.36,1.7a11.64,11.64,0,0,0,3.43,4.88l-.22.26a1.79,1.79,0,0,0-1.35-.36,2.08,2.08,0,0,0-.6.36,4,4,0,0,0-.45.78l-.21.07c-1.22-1.56-2.57-3.91-2.22-6a9,9,0,0,1,.61-2.14Zm.44-10.93-.64.75,2.85,2.4.63-.74Zm3.71,1.38.58-.69-2.85-2.41-.57.69Z"/><text class="cls-2" transform="translate(6.54 107.65) scale(0.9 1)">Sunday</text><text class="cls-3" transform="translate(30.55 129.48)">Market</text><path class="cls-1" d="M38.71,68.41l3.56,4.33c3.52-1.69,6.57-4.32,9.59-4.28s6,2.74,9.23,4.38c7.22-6.63,8.81-6.63,16.42,0,3.31-1.66,6.35-4.39,9.34-4.34s6.22,2.78,9.58,4.46l3.87-4.12c-8.56-11-19.43-16.55-33-15.86A36.27,36.27,0,0,0,38.71,68.41Z"/><path class="cls-1" d="M12.79,76.26c3.39-3.63,4.09-3.64,7.39-.08,3.55,3.82,6.69,3.81,10.26,0,3.23-3.48,4.06-3.5,7.16-.19,3.85,4.12,6.75,4.16,10.51.12,3.19-3.43,4-3.43,7.13,0,3.78,4.06,6.69,4,10.53,0,3.2-3.39,3.87-3.38,7.13.09,3.66,3.9,6.71,3.94,10.26.12,3.39-3.63,4.06-3.63,7.39,0s6.61,3.8,10,.27c3.78-3.94,4.06-3.94,7.93.1,3.12,3.24,6.37,3.28,9.49.1,4.08-4.16,4.08-4.16,8.16,0,3,3.08,4.26.43,1.11-3-3.58-3.88-6.73-3.94-10.25-.19s-4.07,3.67-7.4.1c-3.56-3.8-6.68-3.8-10.27,0-3.21,3.42-4.09,3.44-7.17.18-3.85-4.08-6.75-4.11-10.51-.09-3.18,3.39-4,3.39-7.14,0-3.62-3.89-6.75-3.94-10.27-.19s-4.07,3.66-7.4.11c-3.61-3.84-6.66-3.85-10.26,0-3.32,3.52-4,3.51-7.44-.08s-6.61-3.68-10-.1c-3.62,3.83-4,3.83-7.66,0-3.31-3.46-6.54-3.51-9.75-.17C7.88,77.24,9.37,79.92,12.79,76.26Z"/><path class="cls-1" d="M82.28,51.12l5.68-23-.48-.26c-2.36,6.86-4.77,13.72-7,20.62-.26.79.33,1.85.52,2.79Z"/><path class="cls-1" d="M57.43,51.41c.3-.79,1-1.72.85-2.34C56,42,53.52,35,51.11,27.9l-.51.15q2.84,11.49,5.66,23Z"/><path class="cls-1" d="M70.55,47.28c-.23-6.72-.6-13.43-.93-20.14l-.68.06c-.32,6.62-.69,13.23-.9,19.85,0,.71.87,1.46,1.33,2.18C69.79,48.58,70.57,47.91,70.55,47.28Z"/><path class="cls-1" d="M52.19,53.12c0-.87.38-1.91,0-2.59-3.17-6.39-6.46-12.71-9.71-19.06l-.45.38c2.61,6.49,5.17,13,7.89,19.45C50.29,52.08,51.42,52.52,52.19,53.12Z"/><path class="cls-1" d="M91.77,43.62c1.6-3.95,3.17-7.91,4.75-11.87L96,31.54Q90.7,41.92,85.38,52.31C87.87,53.29,87.88,53.29,91.77,43.62Z"/><path class="cls-1" d="M63.45,49.77c.31-.72,1-1.5.87-2.15-1.22-6.86-2.57-13.69-3.88-20.54l-.56.08c.66,7,1.28,13.94,2,20.9C62,48.68,62.92,49.2,63.45,49.77Z"/><path class="cls-1" d="M76.68,48c.75-6.93,1.36-13.88,2-20.83l-.55-.07c-1.32,6.86-2.67,13.72-3.89,20.6-.12.62.61,1.39.94,2.1C75.71,49.19,76.62,48.64,76.68,48Z"/><path class="cls-1" d="M38.21,63.49l.27-1.21L22.33,49.53l-.54.59c4.52,4.3,9,8.65,13.61,12.85C36,63.52,37.25,63.34,38.21,63.49Z"/><path class="cls-1" d="M101.32,64.6a136.67,136.67,0,0,0,14.94-15.1L99.73,62.59Z"/><path class="cls-1" d="M48.64,56,36.28,38.6l-.71.43c3.16,5.46,6.27,10.94,9.55,16.32C45.42,55.85,46.8,55.7,48.64,56Z"/><path class="cls-1" d="M92.24,56.61c2.51-2,3.56-5.44,5.29-8.14,2-3,3.61-6.29,5.4-9.44l-.67-.39q-5.74,8.11-11.51,16.22Z"/><path class="cls-1" d="M42.39,59.47c.27-3.44-3.25-4.94-5.15-7.09-2.31-2.6-5.14-4.74-8.53-7.77,4.5,5.69,8.35,10.56,12.19,15.44Z"/><path class="cls-1" d="M104.56,68.4c6.93-2,11.62-7.77,17.16-11.83l-18,10.49Z"/><path class="cls-1" d="M35.39,67.38,16.87,56.58C25.57,64.88,31.32,68.26,35.39,67.38Z"/><path class="cls-1" d="M96.46,60l1.2.11,11.62-14.77-.73-.61c-4,4.22-8.11,8.4-12,12.71C96.08,57.91,96.46,59.13,96.46,60Z"/><path class="cls-1" d="M111.49,72c5-1,9.12-4.4,13.46-7.16l-14,5.7C111.1,71,111.3,71.51,111.49,72Z"/><path class="cls-1" d="M27.57,70.49,13.74,64.91C18,67.75,22.19,70.77,27,72.21Z"/></g></g></svg>