<svg xmlns="http://www.w3.org/2000/svg" viewBox="0 0 62.55 62.55"><defs><style>.cls-1,.cls-2{fill:#fff;}.cls-2{fill-rule:evenodd;}</style></defs><title>YT</title><g id="圖層_2" data-name="圖層 2"><g id="footer"><path class="cls-1" d="M31.27,4.28a27,27,0,1,1-27,27,27,27,0,0,1,27-27m0-4.28A31.28,31.28,0,1,0,62.55,31.27,31.27,31.27,0,0,0,31.27,0Z"/><path class="cls-2" d="M18.21,42.13a3.84,3.84,0,0,1-2.52-2.46c-1.1-3-1.42-15.58.68-18.06a4.12,4.12,0,0,1,2.75-1.46c5.67-.61,23.21-.52,25.23.21a4,4,0,0,1,2.48,2.38c1.19,3.11,1.23,14.42-.16,17.41A3.88,3.88,0,0,1,44.89,42C42.77,43.06,21,43,18.21,42.13Zm9-5.9,10.22-5.3L27.22,25.6Z"/></g></g></svg>