<svg xmlns="http://www.w3.org/2000/svg" viewBox="0 0 100.43 95.81"><defs><style>.cls-1{fill:#231815;}</style></defs><title>資產 1</title><g id="圖層_2" data-name="圖層 2"><g id="header"><path class="cls-1" d="M3.64,22.5a1.93,1.93,0,0,1-1.75.09c-.31-.16-1.06-.75-1.37-.76L0,21.8v-.17a6,6,0,0,1,2.62-1.26,2,2,0,0,1,1.28.57A1,1,0,0,1,3.64,22.5Zm16,1.26,0,.17-2.65,2.35A15.93,15.93,0,0,1,13.5,29a4,4,0,0,1-2.46.37c-.34,0-.79-.17-1.09.1-.49.44,0,2,0,2.63l-1.84-.17c.24-.78.3-1.31.55-2.08L4.52,25.22,3.32,26.3l-.73-.82,1.14-1v-1l2.18-1.16,0,1,4.52,5.05a2.22,2.22,0,0,0,1.59-.26,16,16,0,0,0,3.7-2.81c1.17-1.05,2.31-2.12,3.41-3.25l.17.11C19,22.85,18.78,23.51,19.66,23.76ZM10.87,13.64,17.44,21a3.69,3.69,0,0,1,.59.83c.35.9-.7,1.86-1.16,2.27-.9.8-.6,0-1.53-.1a3.31,3.31,0,0,0-1.32.53l-.14-.22c.51-.39,1-.78,1.48-1.21.11-.1.51-.46.5-.63a1.47,1.47,0,0,0-.38-.62l-5.7-6.35L5.88,19c1.64,1.82,2.31,2.59,3.87,4.46,1.35,1.58,1.5,2.55,1,4.8l-.2-.07a17,17,0,0,0-3.32-4.63L3.08,18.89l1.51-1.36.46.52,3.86-3.47-.15-1,2-1.08Zm.59,6.17.36.4-1.48,1.33-.36-.4-1.08,1-.87-1,1.08-1-.46-.51-.91.81-.83-.93.9-.81-.57-.65,1.48-1.33.58.64,1-.87.84.94-1,.86.46.52,1.06-.95.87,1Zm1.91.68,2,2.23-1.28,1.15-.24-.26-.75.68.18.2-1.23,1.1L9.42,22.66l1.23-1.1.23.25.94-.85,0-.49,1.49-.66Zm-1,1.51-.76.68.67.74.75-.68Z"/><path class="cls-1" d="M31,2.89l6.55-1.71L38,.2,40.9,0l-.57,1,3.46,13.32L41.21,15,40.9,13.8l-6.61,1.72.31,1.19-2.51.65L28.32,2.85l2.51-.65Zm8,3.5L37.9,2.27,31.29,4l1.07,4.12Zm1.62,6.26L39.27,7.51,32.65,9.23,34,14.37Z"/><path class="cls-1" d="M67.72,4.32l-.44,1.92,2,.45,1-.57,2.44,1.11-1,.65-1.38,6a.92.92,0,0,1-1,.76,5.93,5.93,0,0,1-1.46-.14c-1.21-.28-.31-.49-.72-1.19a3.14,3.14,0,0,0-1.1-.66l.09-.24c.36.11.7.2,1.06.28s.76.18.87-.32l1-4.53L67,7.4l-1.93,8.5-2.49-.57,1.93-8.5-2-.45-1.46,6.4-2.42-.54,1.84-8.13,2.42.55-.12.56,2,.45.43-1.91L59.1,2.37l.24-1.09L66,2.79c-.67-.79-.22-.9-.48-1.69A2.88,2.88,0,0,0,65,.39l.08-.18c1,0,3.68.36,3.37,2.16-.07.43-.52.63-.9.77l6.39,1.44-.24,1.09Z"/><path class="cls-1" d="M84.38,19.21l.72-.85,4.6,3.9.49-.59,2,1.66-.49.58,4.54,3.84-.71.86-4.55-3.85-2.81,3.33-2-1.66,1.91-2.26c-.5,0-1,0-1.47-.06a13.65,13.65,0,0,1-4.91-1.72V22.2a9.7,9.7,0,0,0,4.93-.27l1.92,1.68.42-.5ZM95.5,14.74a8.48,8.48,0,0,1-1.73.54l-.29.33,2.42,2.05c-.36-1.08.5-1.13.33-2.35h.21A3.67,3.67,0,0,1,98,16.47a1.59,1.59,0,0,1,.22,1.91c-.34.4-.53.39-1,.34l3.28,2.76-.63.76-3.11-2.63-.42.5,2.48,2.1-.64.76-2.49-2.1-.46.56,2.48,2.1-.62.74-2.49-2.11L94,22.8l3.22,2.73-.66.79-7.07-6-.2.23L87.41,19l3.26-3.86c-.75-.18-1.5-.39-2.24-.61l0-.24.84-.06a13.17,13.17,0,0,0,3.49-1.17l.57-.33Zm-2.71,6-2.1-1.78-.54.65,2.1,1.78Zm-1.33,5c.07.41.16.84.27,1.26a8.53,8.53,0,0,0,2.53,3.6l-.17.19c-.26-.16-.67-.39-1-.26a1.31,1.31,0,0,0-.44.26,2.59,2.59,0,0,0-.34.58l-.15.05c-.9-1.16-1.9-2.89-1.64-4.42A6.92,6.92,0,0,1,91,25.37Zm.32-8.06-.47.55L93.41,20l.47-.55Zm2.74,1,.43-.5-2.1-1.78-.43.5Z"/><path class="cls-1" d="M7.77,74.19a6.47,6.47,0,0,0,4.85,2.46c2.29,0,3.9-1,3.9-2.72C16.52,69.88,6,73.79,6,66.38c0-3.24,3-5.46,6.77-5.46a8.31,8.31,0,0,1,6.5,2.77L17,65.92a5.62,5.62,0,0,0-4.42-2.17c-2.5,0-3.44,1.36-3.44,2.46,0,4.08,10.55,0,10.55,7.55,0,3.79-3.47,6.07-7.21,6.07a9.24,9.24,0,0,1-7-3.35Z"/><path class="cls-1" d="M22.45,65.46h2.71v7.83a3.24,3.24,0,0,0,3.05,3.53,3.24,3.24,0,0,0,3-3.53V65.46H34v8.09c0,3.94-2.76,6.28-5.75,6.28s-5.76-2.34-5.76-6.28Z"/><path class="cls-1" d="M37.39,65.46H40.1v1.76h0A4.34,4.34,0,0,1,44,65.08c2.66,0,4.9,2.46,4.9,5.93v8.44H46.19V71.67c0-2.54-1.2-3.58-3-3.58s-3.1,1.24-3.1,3.53v7.83H37.39Z"/><path class="cls-1" d="M62.12,77.75h0a5,5,0,0,1-4.14,2.08c-4.14,0-6.53-3.76-6.53-7.37,0-3.45,2.57-7.38,6.66-7.38a4.56,4.56,0,0,1,4,2.08h0V61.29h2.71V79.45H62.12ZM58.27,77c2.13,0,3.95-2,3.95-4.54s-1.82-4.55-3.95-4.55a4.58,4.58,0,0,0,0,9.09Z"/><path class="cls-1" d="M78.05,77.75h0a5,5,0,0,1-4.14,2.08c-4.14,0-6.54-3.76-6.54-7.37,0-3.45,2.58-7.38,6.67-7.38a4.57,4.57,0,0,1,4,2.08h0v-1.7h2.71v14H78.05ZM74.2,77c2.13,0,4-2,4-4.54s-1.82-4.55-4-4.55a4.58,4.58,0,0,0,0,9.09Z"/><path class="cls-1" d="M84.19,65.46H86.9v8.21c0,2.34,1.3,3.33,3,3.33C92,77,93,75.55,93,73.38V65.46H95.7V79a5.91,5.91,0,0,1-5.76,6.16,6,6,0,0,1-5.33-2.75l2.29-1.56a3.8,3.8,0,0,0,2.89,1.48c1.79,0,3.35-1.22,3.35-3.68v-.75h0a4.31,4.31,0,0,1-3.8,1.91c-2.81,0-5.1-2.34-5.1-6.28Z"/><path class="cls-1" d="M23.93,83.43l5.28,5.34,5.28-5.34V95.56h-2.2V88.22l-3.08,3.2-3.09-3.2v7.34H23.93Z"/><path class="cls-1" d="M44.24,94.45h0a3.78,3.78,0,0,1-3,1.36A4.73,4.73,0,0,1,36.44,91a4.9,4.9,0,0,1,4.84-4.82,3.4,3.4,0,0,1,2.92,1.36h0V86.4h2v9.16h-2ZM41.43,94a3,3,0,1,0-2.91-3A2.95,2.95,0,0,0,41.43,94Z"/><path class="cls-1" d="M48.7,86.4h1.86v1h0a2,2,0,0,1,1.8-1.25,2,2,0,0,1,1.08.28l-.7,2a1.47,1.47,0,0,0-.74-.26,1.35,1.35,0,0,0-1.36,1.38v6h-2Z"/><path class="cls-1" d="M55,91.74H53.68V89.89H55V83.68h2v6.21h1l2.4-3.49h2.38l-3.1,4.32,3.26,4.84H60.55l-2.42-3.82h-1.2v3.82H55Z"/><path class="cls-1" d="M72.91,93.58a5.57,5.57,0,0,1-4.26,2.23,4.83,4.83,0,1,1,0-9.65,4.93,4.93,0,0,1,4.75,5.15v.36H65.79a2.75,2.75,0,0,0,2.8,2.4,3.25,3.25,0,0,0,2.65-1.42ZM71.09,90a2.76,2.76,0,0,0-2.71-2.14A2.6,2.6,0,0,0,65.79,90Z"/><path class="cls-1" d="M74.53,86.4h1.12V84l2-.55v3h1.57v1.86H77.62v3.61c0,1,.23,1.44.81,1.78l1.06.61-.87,1.55c-2-1-3-1.66-3-3.58v-4H74.53Z"/><path class="cls-1" d="M28.57,50.49c1.21,1.47,2.16,2.63,2.63,3.19,2.59-1.24,4.85-3.18,7.08-3.15s4.43,2,6.81,3.23c5.33-4.89,6.5-4.89,12.11,0,2.45-1.22,4.69-3.24,6.9-3.2s4.59,2,7.07,3.29l2.85-3c-6.31-8.13-14.34-12.22-24.37-11.71A26.8,26.8,0,0,0,28.57,50.49Z"/><path class="cls-1" d="M9.44,56.29c2.5-2.69,3-2.69,5.45-.07,2.62,2.82,4.94,2.82,7.57,0,2.39-2.56,3-2.58,5.29-.13,2.84,3,5,3.06,7.76.08,2.35-2.53,2.93-2.53,5.26,0,2.79,3,4.94,3,7.77,0,2.36-2.5,2.85-2.49,5.26.07,2.71,2.88,5,2.91,7.58.09s3-2.68,5.45,0,4.88,2.81,7.39.2c2.78-2.91,3-2.9,5.85.07,2.3,2.4,4.7,2.42,7,.08,3-3.07,3-3.07,6,0,2.22,2.28,3.14.32.82-2.2-2.65-2.86-5-2.9-7.57-.14s-3,2.71-5.46.08c-2.62-2.81-4.93-2.81-7.58,0-2.37,2.52-3,2.53-5.29.13-2.84-3-5-3-7.76-.06-2.34,2.5-2.92,2.5-5.27,0-2.67-2.87-5-2.91-7.57-.15s-3,2.71-5.47.09c-2.66-2.84-4.91-2.84-7.57,0-2.45,2.6-3,2.6-5.49-.05s-4.88-2.72-7.38-.08c-2.68,2.83-2.94,2.83-5.66,0C13.41,51.61,11,51.57,8.66,54,5.81,57,6.92,59,9.44,56.29Z"/><path class="cls-1" d="M60.73,37.73l4.19-16.95-.36-.19C62.82,25.66,61,30.72,59.38,35.81c-.19.58.24,1.37.38,2.06Z"/><path class="cls-1" d="M42.38,38c.23-.59.78-1.28.63-1.74C41.31,31,39.5,25.79,37.72,20.59l-.37.11,4.17,17Z"/><path class="cls-1" d="M52.07,34.89C51.9,29.94,51.63,25,51.39,20l-.51,0c-.23,4.89-.51,9.77-.66,14.66,0,.52.64,1.07,1,1.61C51.51,35.85,52.09,35.36,52.07,34.89Z"/><path class="cls-1" d="M38.52,39.2c0-.64.28-1.4,0-1.91-2.34-4.71-4.77-9.38-7.17-14.06l-.33.28c1.92,4.79,3.82,9.6,5.82,14.36C37.11,38.44,38,38.76,38.52,39.2Z"/><path class="cls-1" d="M67.73,32.19c1.18-2.91,2.34-5.84,3.51-8.76l-.38-.15L63,38.61C64.85,39.33,64.86,39.33,67.73,32.19Z"/><path class="cls-1" d="M46.83,36.73c.23-.53.73-1.11.64-1.58C46.57,30.09,45.58,25,44.61,20l-.42.06c.49,5.14,1,10.29,1.51,15.42C45.75,35.93,46.44,36.31,46.83,36.73Z"/><path class="cls-1" d="M56.6,35.42c.55-5.12,1-10.25,1.48-15.37L57.67,20c-1,5.07-2,10.13-2.87,15.21-.08.46.45,1,.69,1.54C55.88,36.31,56.55,35.9,56.6,35.42Z"/><path class="cls-1" d="M28.2,46.86c.07-.3.13-.6.2-.89L16.48,36.55l-.4.44c3.34,3.18,6.64,6.38,10,9.49C26.56,46.88,27.5,46.74,28.2,46.86Z"/><path class="cls-1" d="M74.78,47.68a101,101,0,0,0,11-11.14L73.61,46.2Z"/><path class="cls-1" d="M35.9,41.34,26.78,28.49l-.53.32c2.33,4,4.63,8.07,7,12C33.52,41.22,34.54,41.11,35.9,41.34Z"/><path class="cls-1" d="M68.08,41.78c1.85-1.46,2.63-4,3.9-6,1.44-2.25,2.67-4.64,4-7l-.49-.28-8.5,12Z"/><path class="cls-1" d="M31.29,43.9c.19-2.54-2.4-3.65-3.81-5.24a79.46,79.46,0,0,0-6.29-5.74l9,11.4Z"/><path class="cls-1" d="M77.17,50.48c5.12-1.45,8.57-5.73,12.66-8.73L76.58,49.5Z"/><path class="cls-1" d="M26.12,49.73l-13.67-8C18.87,47.89,23.12,50.38,26.12,49.73Z"/><path class="cls-1" d="M71.19,44.29l.89.07,8.57-10.9L80.11,33c-3,3.11-6,6.2-8.88,9.38C70.91,42.74,71.19,43.64,71.19,44.29Z"/><path class="cls-1" d="M82.29,53.14c3.71-.76,6.73-3.25,9.93-5.28l-10.37,4.2Z"/><path class="cls-1" d="M20.35,52,10.14,47.9c3.15,2.1,6.23,4.33,9.79,5.39Z"/></g></g></svg>