<svg xmlns="http://www.w3.org/2000/svg" viewBox="0 0 50.39 27.44"><defs><style>.cls-1{fill:#231815;}</style></defs><title>about</title><g id="圖層_2" data-name="圖層 2"><g id="header"><path class="cls-1" d="M4.37,2.23H1.62v-2h5l5.07,12H9.28L8.36,10H3.28l-.91,2.26H0ZM7.58,8,5.84,3.7,4.08,8Z"/><path class="cls-1" d="M12.92.25h2V4.12h0a3.72,3.72,0,0,1,3-1.37,4.74,4.74,0,0,1,4.81,4.87A4.74,4.74,0,0,1,18,12.48a3.72,3.72,0,0,1-3-1.37h0v1.13h-2Zm4.87,4.37a2.86,2.86,0,0,0-2.89,3,2.89,2.89,0,1,0,5.77,0A2.86,2.86,0,0,0,17.79,4.62Z"/><path class="cls-1" d="M29,2.75a4.87,4.87,0,1,1,0,9.73,4.87,4.87,0,1,1,0-9.73Zm0,7.86a2.94,2.94,0,0,0,3-3,3,3,0,1,0-6,0A2.94,2.94,0,0,0,29,10.61Z"/><path class="cls-1" d="M35.93,3h2V8.17a2.23,2.23,0,1,0,4.46,0V3h2V8.34a4.22,4.22,0,0,1-8.44,0Z"/><path class="cls-1" d="M47,4.87H45.87V3H47V.54L49,0V3h1.41V4.87H49v7.37H47Z"/><path class="cls-1" d="M11.37,19.23c.13,0,.2.06.2.19v2.26a.19.19,0,0,1-.21.21H10.22l.33.3a6.22,6.22,0,0,1-.65.74c.12.1.24.2.37.33a5.15,5.15,0,0,0,.68-1l.55.29A6.46,6.46,0,0,1,10.31,24l.72-.08c0-.13-.1-.24-.14-.33l.56-.2a5.12,5.12,0,0,1,.42,1.24l-.48.15v1.1a1.27,1.27,0,0,1-.09.42,2.3,2.3,0,0,1-1.53,1.13l-.31-.65a1.76,1.76,0,0,0,1.16-.58H9.54a.28.28,0,0,1-.3-.31v-1h.63v.52c0,.11.05.17.15.17h.71v-.83h.55c0-.08,0-.15,0-.21L9,24.76a4.79,4.79,0,0,0-.14-.62l.46,0c.17-.12.34-.26.52-.41a5.71,5.71,0,0,0-1-.78l.31-.55a1.83,1.83,0,0,1,.32.2,7.69,7.69,0,0,0,.57-.67H8.62v5.42H7.89V19.42a.17.17,0,0,1,.19-.19Zm-2.75,1h2.22V20c0-.09-.05-.14-.16-.14H8.79c-.12,0-.18.05-.17.16Zm2.22.56H8.62v.48h2c.12,0,.18-.06.18-.18Zm4.21,1.07H13.24l.27.2a8.68,8.68,0,0,1-.74,1l.35.3a4.92,4.92,0,0,0,.7-1.05l.56.26a5.46,5.46,0,0,1-1,1.31l.64-.06-.14-.28.57-.26A5.83,5.83,0,0,1,15,24.46l-.59.22a1.52,1.52,0,0,1-.09-.25l-2.22.22a3.47,3.47,0,0,0-.14-.61L12.5,24l.19-.17a4.81,4.81,0,0,0-1-.76l.3-.55a2,2,0,0,1,.33.2,9.46,9.46,0,0,0,.57-.81h-.64a.21.21,0,0,1-.22-.23V19.44a.19.19,0,0,1,.21-.21h3.31c.16,0,.23.07.23.22v7.1a.89.89,0,0,1-.12.42.83.83,0,0,1-.33.28A2.11,2.11,0,0,1,14,27.3l0-.8a1.93,1.93,0,0,0,.91.07s.07-.05.11-.11a.35.35,0,0,0,.05-.2Zm-2.17,3.64h.75a.1.1,0,0,0,.11-.11v-.53h.62V26a.17.17,0,0,1-.18.17h-1.3v1.2h-.69V24.81h.69Zm-.12-5.27h2.29V20c0-.13-.07-.19-.2-.19H12.92c-.11,0-.16.05-.16.15Zm2.29.56H12.76v.28a.18.18,0,0,0,.2.2h2.09Z"/><path class="cls-1" d="M22.74,22.64c0,.72-.12,1.48-.24,2.27a10.22,10.22,0,0,1-.71,2.26L21,27a10.3,10.3,0,0,0,1-4.57V20.89h-.83v-.77h1.49v-1h.77v1h1.44v.77H22.75v1h1.61a.24.24,0,0,1,.15,0c.1.05.15.19.15.4,0,1,0,1.83,0,2.57,0,1.24-.24,2-.62,2.28a1.92,1.92,0,0,1-1.43,0l-.06-.93a4.54,4.54,0,0,0,.71.2.4.4,0,0,0,.32-.05,1,1,0,0,0,.2-.44,4.2,4.2,0,0,0,.07-.51,13.86,13.86,0,0,0,0-2.72.1.1,0,0,0-.1-.06Zm4.42-2.49c-.25.4-.46.71-.64,1a8.08,8.08,0,0,1-1.22,1.16l-.65-.53A9.08,9.08,0,0,0,26,20.49,8,8,0,0,0,27,19l.66.22a.59.59,0,0,0-.1.17,10.21,10.21,0,0,0,1.93,2.26l-.64.53A7.57,7.57,0,0,1,27.16,20.15ZM25,25.54l.31-.74a21.3,21.3,0,0,1,4,1.91l-.36.73A21.34,21.34,0,0,0,25,25.54Zm.57-2.41.29-.75A16,16,0,0,1,29,23.68l-.32.74A16.9,16.9,0,0,0,25.57,23.13Z"/><path class="cls-1" d="M40.23,25.07a15,15,0,0,1-.71-2.95H37.29V23.7a12,12,0,0,0,1.29-.54l.34.68c-.44.2-.94.39-1.49.58l-.14,0V26.4a.9.9,0,0,1-.41.77,2.39,2.39,0,0,1-1.8,0v-.79c.76.19,1.21.22,1.37.09a.3.3,0,0,0,.08-.25V24.71c-.52.14-1.05.27-1.58.39l-.31-.75q1.13-.21,1.89-.42V22.12H34.68v-.77h1.84V20.29c-.49.09-1,.16-1.51.22l-.23-.75A13.72,13.72,0,0,0,38.44,19l.28.71a10.7,10.7,0,0,1-1.39.37l0,0v1.22h2.15c-.07-.71-.11-1.47-.12-2.31l.76.07c0,.79,0,1.54.09,2.24H42.8v.77H40.25a14.26,14.26,0,0,0,.48,2.3c.05-.09.1-.18.16-.27a7.27,7.27,0,0,0,.67-1.74l.72.26A8.36,8.36,0,0,1,41,25.21a4.36,4.36,0,0,0,.43.74c.2.3.34.45.41.45a.15.15,0,0,0,.11-.12A6.64,6.64,0,0,0,42.2,25l.74.25a3.29,3.29,0,0,1-.59,1.95.51.51,0,0,1-.33.14.94.94,0,0,1-.68-.4,5.66,5.66,0,0,1-.79-1.2s0,0,0,0a4.93,4.93,0,0,1-2.39,1.39l-.41-.71a2.37,2.37,0,0,1,.36-.09A5.37,5.37,0,0,0,40.23,25.07Zm.41-5.23.44-.61c.88.58,1.42.95,1.61,1.11l-.48.58A11.12,11.12,0,0,0,40.64,19.84Z"/></g></g></svg>