<svg xmlns="http://www.w3.org/2000/svg" viewBox="0 0 62.15 62.15"><defs><style>.cls-1,.cls-2{fill:#fff;}.cls-2{fill-rule:evenodd;}</style></defs><title>FB</title><g id="圖層_2" data-name="圖層 2"><g id="footer"><path class="cls-1" d="M31.07,4.25A26.82,26.82,0,1,1,4.25,31.07,26.85,26.85,0,0,1,31.07,4.25m0-4.25A31.08,31.08,0,1,0,62.15,31.07,31.07,31.07,0,0,0,31.07,0Z"/><path class="cls-2" d="M35.07,19.54c1.13,0,2.26,0,3.39,0h.47V13.65c-.61-.06-1.24-.15-1.87-.18-1.16-.05-2.32-.11-3.48-.08a8.45,8.45,0,0,0-4.91,1.51,7.36,7.36,0,0,0-3,4.91,16.37,16.37,0,0,0-.21,2.52c0,1.32,0,2.64,0,4v.5H19.88v6.56h5.59V49.86h6.84V33.38h5.57c.29-2.18.57-4.35.86-6.6H32.26s0-3.25.06-4.66C32.37,20.18,33.52,19.59,35.07,19.54Z"/></g></g></svg>