<svg xmlns="http://www.w3.org/2000/svg" viewBox="0 0 160.71 158.92"><defs><style>.cls-1,.cls-2,.cls-3{fill:#231815;}.cls-2{font-size:46.28px;}.cls-2,.cls-3{font-family:Insignia;}.cls-3{font-size:30.28px;}</style></defs><title>資產 1</title><g id="圖層_2" data-name="圖層 2"><g id="header"><path class="cls-1" d="M5.82,36a3.06,3.06,0,0,1-2.8.16A9.85,9.85,0,0,0,.83,34.93l-.81,0,0-.27c1.07-.71,2.87-2,4.19-2a3.2,3.2,0,0,1,2.05.92A1.65,1.65,0,0,1,5.82,36Zm25.64,2,.06.27-4.24,3.77a26,26,0,0,1-5.67,4.29,6.63,6.63,0,0,1-3.94.59c-.55-.08-1.27-.28-1.75.15-.78.71-.08,3.24,0,4.22L13,51c.38-1.24.48-2.1.87-3.32L7.23,40.36,5.32,42.08,4.15,40.77,6,39.13V37.56l3.5-1.86,0,1.61,7.24,8.07A3.5,3.5,0,0,0,19.28,45c2.11-.92,4.23-3,5.92-4.48,1.88-1.69,3.71-3.41,5.47-5.21l.26.17C30.41,36.56,30.05,37.62,31.46,38ZM17.4,21.83,27.91,33.57a5.59,5.59,0,0,1,.94,1.34c.56,1.42-1.11,3-1.86,3.63-1.43,1.28-1,0-2.44-.17a5.49,5.49,0,0,0-2.12.84l-.22-.33c.82-.63,1.6-1.26,2.36-1.94.18-.17.82-.74.8-1a2.2,2.2,0,0,0-.6-1L15.66,24.78,9.42,30.37C12,33.29,13.1,34.52,15.6,37.5c2.16,2.53,2.4,4.1,1.63,7.69l-.32-.11c-.85-2.33-3.13-5-5.3-7.41L4.93,30.23l2.41-2.17.74.83,6.18-5.55L14,21.78l3.21-1.72Zm1,9.87.57.64-2.37,2.13L16,33.83l-1.73,1.55-1.39-1.55,1.73-1.55-.74-.83-1.45,1.31-1.33-1.5L12.5,30l-.92-1L14,26.81l.93,1,1.54-1.4,1.34,1.49-1.55,1.39.74.83,1.69-1.52L20,30.18Zm3,1.08,3.21,3.58L22.55,38.2l-.38-.42L21,38.86l.29.33-2,1.77-4.21-4.69,2-1.77.37.4,1.5-1.35,0-.79,2.39-1Zm-1.53,2.43-1.21,1.08,1.07,1.19,1.2-1.09Z"/><path class="cls-1" d="M49.62,4.62,60.1,1.9,60.78.32,65.45,0l-.91,1.55,5.54,21.31-4.14,1.08-.49-1.86L54.87,24.83l.49,1.92-4,1-6-23.22,4-1Zm12.75,5.61-1.71-6.6L50.07,6.38,51.79,13Zm2.61,10L62.84,12,52.25,14.77,54.39,23Z"/><path class="cls-1" d="M108.36,6.92l-.7,3.07,3.17.71,1.54-.9,3.91,1.77-1.57,1-2.21,9.63a1.48,1.48,0,0,1-1.64,1.22,10.27,10.27,0,0,1-2.34-.23c-1.93-.44-.49-.78-1.15-1.9a5.07,5.07,0,0,0-1.75-1.06l.14-.39c.57.18,1.12.33,1.7.47s1.21.27,1.39-.52l1.67-7.26-3.27-.74-3.09,13.61-4-.91,3.08-13.6-3.17-.72L97.76,20.46l-3.88-.88,3-13,3.88.88-.2.9,3.17.72.7-3.06L94.58,3.8,95,2.05l10.68,2.42c-1.07-1.27-.37-1.45-.78-2.71A4.54,4.54,0,0,0,104,.62l.11-.28c1.55,0,5.9.56,5.41,3.45-.12.69-.84,1-1.44,1.23l10.22,2.32-.39,1.74Z"/><path class="cls-1" d="M135,30.75l1.16-1.36,7.36,6.23.79-.94,3.14,2.66-.79.92,7.26,6.14-1.12,1.39-7.29-6.17L141,45,137.9,42.3l3-3.61c-.81,0-1.58-.06-2.35-.11a21.7,21.7,0,0,1-7.86-2.75v-.31a15.57,15.57,0,0,0,7.9-.43l3.06,2.69.68-.8Zm17.81-7.17a13.4,13.4,0,0,1-2.78.87l-.46.53,3.88,3.28c-.58-1.73.79-1.81.53-3.76h.32a5.69,5.69,0,0,1,2.42,1.87,2.52,2.52,0,0,1,.35,3.05c-.54.64-.84.63-1.62.55l5.24,4.42-1,1.2-5-4.2-.68.8,4,3.37-1,1.21-4-3.36-.75.89,4,3.36-1,1.18-4-3.37-.88,1,5.16,4.36-1.06,1.26-11.31-9.55-.31.37-3-2.53,5.22-6.17c-1.21-.28-2.41-.62-3.59-1l0-.39c.44,0,.89-.05,1.35-.09a20.78,20.78,0,0,0,5.57-1.87l.92-.53Zm-4.34,9.53-3.36-2.84-.87,1,3.36,2.84Zm-2.13,8c.12.66.25,1.34.43,2,.48,2,2.51,4.4,4,5.76l-.26.31c-.42-.25-1.07-.62-1.58-.42a2.38,2.38,0,0,0-.72.42,4.48,4.48,0,0,0-.53.93l-.25.08c-1.44-1.85-3-4.62-2.63-7.07a11.41,11.41,0,0,1,.73-2.53Zm.51-12.9-.75.88,3.37,2.84.74-.88Zm4.39,1.62.68-.81-3.36-2.84-.68.8Z"/><text class="cls-2" transform="translate(7.73 127.15) scale(0.9 1)">Sunday</text><text class="cls-3" transform="translate(36.08 152.93)">Market</text><path class="cls-1" d="M45.72,80.8l4.21,5.11c4.15-2,7.75-5.1,11.32-5s7.09,3.23,10.9,5.17c8.53-7.83,10.4-7.83,19.39,0,3.91-2,7.5-5.18,11-5.12,3.7.06,7.35,3.28,11.32,5.26l4.57-4.86c-10.11-13-22.95-19.55-39-18.73A42.82,42.82,0,0,0,45.72,80.8Z"/><path class="cls-1" d="M15.11,90.07c4-4.29,4.82-4.3,8.72-.1,4.19,4.52,7.91,4.51,12.12,0,3.81-4.11,4.8-4.14,8.46-.22,4.54,4.87,8,4.9,12.41.14,3.77-4,4.7-4.06,8.42,0,4.46,4.79,7.9,4.79,12.44,0,3.77-4,4.56-4,8.42.11C90.43,94.5,94,94.54,98.22,90c4-4.29,4.79-4.3,8.73-.06s7.8,4.49,11.81.32c4.47-4.65,4.8-4.64,9.37.12,3.69,3.83,7.53,3.87,11.21.12,4.82-4.91,4.82-4.91,9.64,0,3.56,3.63,5,.5,1.31-3.52-4.23-4.58-7.95-4.65-12.11-.23s-4.8,4.34-8.73.13c-4.2-4.5-7.89-4.49-12.13,0-3.8,4-4.84,4.06-8.47.21-4.54-4.82-8-4.85-12.42-.1-3.75,4-4.68,4-8.43,0-4.28-4.59-8-4.66-12.12-.22s-4.81,4.32-8.75.13c-4.26-4.54-7.86-4.55-12.12,0-3.92,4.16-4.76,4.15-8.78-.09s-7.81-4.35-11.82-.12c-4.27,4.52-4.69,4.52-9,0-3.91-4.09-7.72-4.15-11.51-.2C9.3,91.22,11.07,94.39,15.11,90.07Z"/><path class="cls-1" d="M97.18,60.38l6.71-27.12-.57-.31c-2.79,8.11-5.64,16.2-8.3,24.35-.31.94.38,2.19.61,3.3Z"/><path class="cls-1" d="M67.83,60.72c.36-.93,1.24-2,1-2.77-2.72-8.37-5.62-16.68-8.47-25l-.59.18q3.33,13.56,6.68,27.13Z"/><path class="cls-1" d="M83.33,55.84c-.28-7.94-.71-15.86-1.1-23.79l-.8.07c-.38,7.82-.82,15.63-1.07,23.45,0,.84,1,1.72,1.57,2.58C82.42,57.38,83.35,56.59,83.33,55.84Z"/><path class="cls-1" d="M61.64,62.74c0-1,.45-2.25,0-3.06-3.75-7.55-7.63-15-11.47-22.51l-.53.45C52.77,45.28,55.8,53,59,60.59,59.39,61.51,60.74,62,61.64,62.74Z"/><path class="cls-1" d="M108.39,51.52q2.82-7,5.61-14l-.6-.24L100.84,61.78C103.78,62.94,103.79,62.94,108.39,51.52Z"/><path class="cls-1" d="M74.94,58.78c.37-.85,1.17-1.77,1-2.53-1.44-8.11-3-16.18-4.59-24.26l-.66.09c.78,8.23,1.51,16.46,2.4,24.68C73.2,57.49,74.31,58.11,74.94,58.78Z"/><path class="cls-1" d="M90.57,56.68c.88-8.19,1.6-16.4,2.36-24.6L92.29,32c-1.56,8.11-3.16,16.21-4.6,24.33-.13.74.72,1.65,1.11,2.48C89.42,58.1,90.49,57.44,90.57,56.68Z"/><path class="cls-1" d="M45.13,75c.1-.47.21-1,.32-1.42L26.37,58.49c-.21.24-.43.47-.64.7,5.34,5.09,10.63,10.22,16.07,15.19C42.51,75,44,74.8,45.13,75Z"/><path class="cls-1" d="M119.67,76.3a161.55,161.55,0,0,0,17.64-17.83L117.79,73.93Z"/><path class="cls-1" d="M57.45,66.15,42.85,45.59,42,46.1c3.73,6.44,7.4,12.92,11.28,19.27C53.65,66,55.27,65.78,57.45,66.15Z"/><path class="cls-1" d="M108.94,66.87c3-2.35,4.21-6.44,6.25-9.62,2.3-3.61,4.27-7.43,6.38-11.16l-.79-.45L107.19,64.8Z"/><path class="cls-1" d="M50.07,70.24c.31-4.06-3.84-5.83-6.09-8.38-2.73-3.07-6.07-5.59-10.07-9.17l14.4,18.23Z"/><path class="cls-1" d="M123.49,80.78c8.19-2.33,13.72-9.17,20.27-14L122.55,79.2Z"/><path class="cls-1" d="M41.79,79.59,19.92,66.82C30.2,76.63,37,80.62,41.79,79.59Z"/><path class="cls-1" d="M113.92,70.87l1.43.12q6.86-8.73,13.72-17.44l-.87-.72c-4.76,5-9.57,9.92-14.21,15C113.48,68.4,113.92,69.84,113.92,70.87Z"/><path class="cls-1" d="M131.68,85c5.94-1.22,10.77-5.19,15.9-8.44L131,83.31Z"/><path class="cls-1" d="M32.56,83.25,16.23,76.66c5,3.36,10,6.92,15.66,8.62Z"/></g></g></svg>