<svg xmlns="http://www.w3.org/2000/svg" viewBox="0 0 45.63 27.38"><defs><style>.cls-1{fill:#231815;}</style></defs><title>shop</title><g id="圖層_2" data-name="圖層 2"><g id="header"><path class="cls-1" d="M18.15,26.27c0,.13-.06.2-.17.2a1.48,1.48,0,0,0,.78.1.42.42,0,0,0,.2-.36V23.52H16.8c-.22,0-.33-.11-.33-.34V22h-1a2.55,2.55,0,0,1-.09.45,2.74,2.74,0,0,1-1.9,1.48L13,23.25a5.52,5.52,0,0,0,.94-.33,1.39,1.39,0,0,0,.72-.93H12.94a.05.05,0,0,0-.06.06v5.29h-.76V21.45a.17.17,0,0,1,.18-.19h1.91c-.2-.43-.32-.72-.37-.85H11.89v-.73h3.67V19h.76v.66H20v.73H18c-.06.14-.11.3-.17.48s-.1.25-.14.37h1.85a.17.17,0,0,1,.19.19v5.07a.82.82,0,0,1-.35.71,2.05,2.05,0,0,1-1.5,0v-.8h-4a.18.18,0,0,1-.19-.2V24.21a.17.17,0,0,1,.19-.19h4.05c.14,0,.21.06.21.19Zm-.8-1.56H14.49s0,0,0,0v1s0,0,0,.05h2.86a.05.05,0,0,0,0-.05v-1S17.37,24.71,17.35,24.71ZM15,21.26h1.85c.21-.51.32-.79.33-.85H14.66C14.87,20.89,15,21.18,15,21.26Zm2.33,1.57H19v-.78s0-.06-.07-.06H17.16v.65A.17.17,0,0,0,17.35,22.83Z"/><path class="cls-1" d="M33,27a.19.19,0,0,1-.21.21H27.2A.18.18,0,0,1,27,27V23.7c0-.14.07-.21.2-.21h2v-3H26.63a.08.08,0,0,0-.09.09v3.23A9,9,0,0,1,26,27.14l-.74-.25a8,8,0,0,0,.45-1.61,11.67,11.67,0,0,0,.11-1.73V19.91A.19.19,0,0,1,26,19.7h3.2v-.65h.76v.65h3.42v.77H29.94V21.6h3.44v.76H29.94v1.13h2.81q.21,0,.21.21Zm-.81-2.74H27.8s0,0,0,0V26.4a0,0,0,0,0,0,0h4.35a0,0,0,0,0,.05,0V24.29A0,0,0,0,0,32.15,24.26Z"/><path class="cls-1" d="M11.28,5.08a6,6,0,0,1,.12,1.51,5.68,5.68,0,0,1-5.9,5.89A6.7,6.7,0,0,1,.11,9.58L2,8.46a4.45,4.45,0,0,0,3.59,2A3.39,3.39,0,0,0,9.18,7.06H.11A9.88,9.88,0,0,1,0,5.38,5.49,5.49,0,0,1,5.73,0a5.87,5.87,0,0,1,5.09,2.62L9.07,3.82A4.16,4.16,0,0,0,5.52,2,3.17,3.17,0,0,0,2.21,5.08Z"/><path class="cls-1" d="M13.49.25h2V4.16h0a3.27,3.27,0,0,1,2.83-1.41,3.7,3.7,0,0,1,3.59,3.91v5.58h-2V7.1c0-1.68-.88-2.37-2.19-2.37a2.16,2.16,0,0,0-2.27,2.33v5.18h-2Z"/><path class="cls-1" d="M28.85,2.75a4.87,4.87,0,1,1,0,9.73,4.87,4.87,0,1,1,0-9.73Zm0,7.86a2.94,2.94,0,0,0,3-3,3,3,0,1,0-6,0A2.94,2.94,0,0,0,28.85,10.61Z"/><path class="cls-1" d="M37.76,4.12h0a3.82,3.82,0,0,1,3-1.37,4.77,4.77,0,0,1,4.79,4.87,4.94,4.94,0,0,1-4.89,4.86,3.46,3.46,0,0,1-2.94-1.37h0v4.31h-2V3h2Zm2.83.5a3,3,0,1,0,2.94,3A3,3,0,0,0,40.59,4.62Z"/></g></g></svg>