<?xml version="1.0" encoding="utf-8"?>
<!-- Generator: Adobe Illustrator 24.0.3, SVG Export Plug-In . SVG Version: 6.00 Build 0)  -->
<svg version="1.1" id="Слой_1" xmlns="http://www.w3.org/2000/svg" xmlns:xlink="http://www.w3.org/1999/xlink" x="0px" y="0px"
	 viewBox="0 0 26 26" style="enable-background:new 0 0 26 26;" xml:space="preserve">
<style type="text/css">
	.st0{fill:#1D1D1B;}
</style>
<path class="st0" d="M25,6l-0.2,0L6,5.1L5.5,2.8C5.4,2.2,5.2,1.9,4.8,1.9H1c-0.6,0-1,0.4-1,1C0,3.5,0.4,4,1.1,4h2.6l2.6,14.6
	C5.4,19,4.9,20,4.9,21.1c0,1.6,1.4,3,3,3c1.6,0,3-1.4,3-3c0-0.3,0-0.6-0.1-0.9H17C17,20.5,17,20.8,17,21.1c0,1.6,1.4,3,3,3
	s3-1.4,3-3s-1.4-3-3-3H8.4L8.2,17h13.6c1.6,0,2.6-1.3,2.9-2.5L26,7.2V7.1C26,6.6,25.6,6,25,6z M18.9,10.8l-0.2,1.4L15.8,12v-1.4
	L18.9,10.8z M18.5,13.7L18.3,15h-2.5v-1.4H18.5z M19.2,7.8l-0.2,1.5l-3.2-0.1V7.7L19.2,7.8z M22.7,14.2c-0.1,0.3-0.4,0.9-0.9,0.9H20
	l0.1-1.2h2.6L22.7,14.2z M23.2,11.1L23,12.2h-2.7l0.1-1.2L23.2,11.1z M23.8,8.2c-0.1,0.4-0.1,0.8-0.2,1.4l-2.8-0.1L20.8,8L23.8,8.2z
	 M7,21.1c0-0.5,0.4-0.9,0.9-0.9c0.5,0,0.9,0.4,0.9,0.9c0,0.5-0.4,0.9-0.9,0.9C7.4,22,7,21.6,7,21.1z M10.3,15H7.8l-0.3-1.5h2.7
	L10.3,15z M6.6,8.9L6.3,7.1l3.3,0.2l0.2,1.8L6.6,8.9z M7.2,12l-0.3-1.4l3,0.1l0.2,1.4H7.2z M11.2,7.5l3.1,0.2v1.6l-2.9-0.1L11.2,7.5
	z M11.5,10.7l2.8,0.1v1.3L11.6,12L11.5,10.7z M14.2,13.6V15h-2.3l-0.2-1.5H14.2z M18.9,21.1c0-0.5,0.4-0.9,0.9-0.9
	c0.5,0,0.9,0.4,0.9,0.9c0,0.5-0.4,0.9-0.9,0.9C19.3,22,18.9,21.6,18.9,21.1z"/>
</svg>
